<?xml version="1.0" encoding="UTF-8" standalone="no"?>
<!-- Created with Inkscape (http://www.inkscape.org/) -->

<svg
   width="338.66666mm"
   height="169.33333mm"
   viewBox="0 0 338.66666 169.33333"
   version="1.1"
   id="svg5"
   inkscape:version="1.1.2 (0a00cf5339, 2022-02-04)"
   sodipodi:docname="card.svg"
   xmlns:inkscape="http://www.inkscape.org/namespaces/inkscape"
   xmlns:sodipodi="http://sodipodi.sourceforge.net/DTD/sodipodi-0.dtd"
   xmlns="http://www.w3.org/2000/svg"
   xmlns:svg="http://www.w3.org/2000/svg">
  <sodipodi:namedview
     id="namedview7"
     pagecolor="#ffffff"
     bordercolor="#666666"
     borderopacity="1.0"
     inkscape:pageshadow="2"
     inkscape:pageopacity="0.0"
     inkscape:pagecheckerboard="0"
     inkscape:document-units="mm"
     showgrid="false"
     fit-margin-top="0"
     fit-margin-left="0"
     fit-margin-right="0"
     fit-margin-bottom="0"
     showguides="true"
     inkscape:guide-bbox="true"
     inkscape:zoom="0.4387072"
     inkscape:cx="896.95359"
     inkscape:cy="278.08981"
     inkscape:window-width="1920"
     inkscape:window-height="1015"
     inkscape:window-x="0"
     inkscape:window-y="0"
     inkscape:window-maximized="1"
     inkscape:current-layer="layer1">
    <sodipodi:guide
       position="20.046181,148.75961"
       orientation="1,0"
       id="guide848" />
    <sodipodi:guide
       position="317.57371,21.097093"
       orientation="1,0"
       id="guide850" />
    <sodipodi:guide
       position="317.57371,21.097093"
       orientation="0,-1"
       id="guide852" />
    <sodipodi:guide
       position="20.046181,148.75961"
       orientation="0,-1"
       id="guide854" />
    <sodipodi:guide
       position="317.57371,148.75961"
       orientation="0.70710678,-0.70710678"
       id="guide4806" />
    <sodipodi:guide
       position="20.046181,148.75961"
       orientation="-0.70710678,-0.70710678"
       id="guide4808" />
    <sodipodi:guide
       position="168.80995,-0.0041545"
       orientation="1,0"
       id="guide4810" />
  </sodipodi:namedview>
  <defs
     id="defs2" />
  <g
     inkscape:label="Layer 1"
     inkscape:groupmode="layer"
     id="layer1"
     transform="translate(65.409698,-54.074009)">
    <g
       aria-label="Honeycomb flakes, sheets, ribbons, whatever. Made easy."
       id="text1224"
       style="font-size:8.46667px;line-height:1.25;stroke-width:0.264583"
       transform="translate(-2.1166667)">
      <path
         d="m -9.7570295,186.44687 h -0.8185555 v -3.01377 h -3.071648 v 3.01377 h -0.818555 v -6.1557 h 0.818555 v 2.41432 h 3.071648 v -2.41432 h 0.8185555 z"
         id="path4997" />
      <path
         d="m -4.225582,184.14003 q 0,1.12862 -0.5787762,1.78181 -0.5787763,0.65319 -1.5502936,0.65319 -0.9797856,0 -1.5585618,-0.65319 -0.5746422,-0.65319 -0.5746422,-1.78181 0,-1.12861 0.5746422,-1.7818 0.5787762,-0.65733 1.5585618,-0.65733 0.9715173,0 1.5502936,0.65733 0.5787762,0.65319 0.5787762,1.7818 z m -0.8020185,0 q 0,-0.8971 -0.3513999,-1.33118 -0.3513999,-0.43822 -0.9756514,-0.43822 -0.6325198,0 -0.9839197,0.43822 -0.3472658,0.43408 -0.3472658,1.33118 0,0.86817 0.3513999,1.31879 0.3513999,0.44648 0.9797856,0.44648 0.6201174,0 0.9715173,-0.44235 0.355534,-0.44649 0.355534,-1.32292 z"
         id="path4999" />
      <path
         d="M 0.84284432,186.44687 H 0.06563047 v -2.6293 q 0,-0.31833 -0.03720704,-0.59531 -0.03720705,-0.28112 -0.13642584,-0.43822 -0.1033529,-0.17363 -0.29765637,-0.25631 -0.19430346,-0.0868 -0.50436218,-0.0868 -0.31832694,0 -0.66559274,0.1571 -0.3472657,0.15709 -0.6655927,0.40101 v 3.44785 h -0.7772138 v -4.61781 h 0.7772138 v 0.51263 q 0.3638022,-0.30179 0.7524092,-0.47129 0.3886069,-0.1695 0.7978844,-0.1695 0.74827504,0 1.14101608,0.45062 0.39274104,0.45062 0.39274104,1.29811 z"
         id="path5001" />
      <path
         d="M 6.2047942,184.21858 H 2.8024165 q 0,0.42581 0.1281576,0.74414 0.1281576,0.31419 0.3513999,0.51677 0.2149741,0.19843 0.5084963,0.29765 0.2976564,0.0992 0.6531904,0.0992 0.4712892,0 0.9467126,-0.18603 0.4795575,-0.19017 0.6821292,-0.37207 h 0.041341 v 0.84749 q -0.392741,0.16536 -0.8020185,0.27698 -0.4092775,0.11163 -0.8598962,0.11163 -1.1492843,0 -1.7942064,-0.62012 -0.6449222,-0.62425 -0.6449222,-1.7694 0,-1.13275 0.6159833,-1.79834 0.6201175,-0.6656 1.6288418,-0.6656 0.9343103,0 1.4386725,0.54571 0.5084963,0.5457 0.5084963,1.55029 z m -0.7565433,-0.59531 q -0.00413,-0.61185 -0.3100587,-0.94672 -0.3017905,-0.33486 -0.9219079,-0.33486 -0.6242516,0 -0.996322,0.36794 -0.3679364,0.36793 -0.4175458,0.91364 z"
         id="path5003" />
      <path
         d="m 11.376573,181.82906 -2.6954439,6.32106 H 7.8501717 l 0.8598962,-1.92649 -1.8396817,-4.39457 h 0.8433597 l 1.4180018,3.42305 1.4304043,-3.42305 z"
         id="path5005" />
      <path
         d="m 15.808346,186.15748 q -0.388607,0.18604 -0.740007,0.28939 -0.347265,0.10335 -0.740006,0.10335 -0.500229,0 -0.917774,-0.14469 -0.417546,-0.14883 -0.715202,-0.44649 -0.301791,-0.29765 -0.467156,-0.75241 -0.165364,-0.45475 -0.165364,-1.06246 0,-1.13275 0.620117,-1.77767 0.624252,-0.64493 1.645379,-0.64493 0.396875,0 0.777213,0.11163 0.384473,0.11162 0.7028,0.27285 v 0.86403 h -0.04134 q -0.355534,-0.27699 -0.735873,-0.42582 -0.376204,-0.14883 -0.735872,-0.14883 -0.661459,0 -1.045932,0.44649 -0.380339,0.44235 -0.380339,1.30225 0,0.83509 0.372071,1.28571 0.376205,0.44648 1.0542,0.44648 0.235644,0 0.479557,-0.062 0.243913,-0.062 0.438216,-0.16123 0.169499,-0.0868 0.318327,-0.1819 0.148829,-0.0992 0.235645,-0.1695 h 0.04134 z"
         id="path5007" />
      <path
         d="m 20.74448,184.14003 q 0,1.12862 -0.578776,1.78181 -0.578776,0.65319 -1.550294,0.65319 -0.979785,0 -1.558561,-0.65319 -0.574643,-0.65319 -0.574643,-1.78181 0,-1.12861 0.574643,-1.7818 0.578776,-0.65733 1.558561,-0.65733 0.971518,0 1.550294,0.65733 0.578776,0.65319 0.578776,1.7818 z m -0.802018,0 q 0,-0.8971 -0.3514,-1.33118 -0.3514,-0.43822 -0.975652,-0.43822 -0.632519,0 -0.983919,0.43822 -0.347266,0.43408 -0.347266,1.33118 0,0.86817 0.3514,1.31879 0.3514,0.44648 0.979785,0.44648 0.620118,0 0.971518,-0.44235 0.355534,-0.44649 0.355534,-1.32292 z"
         id="path5009" />
      <path
         d="m 28.690252,186.44687 h -0.777213 v -2.6293 q 0,-0.29766 -0.02894,-0.57464 -0.02481,-0.27699 -0.111621,-0.44235 -0.09509,-0.17777 -0.272852,-0.26872 -0.177767,-0.0909 -0.51263,-0.0909 -0.326596,0 -0.653191,0.16536 -0.326595,0.16124 -0.65319,0.41342 0.0124,0.0951 0.02067,0.22324 0.0083,0.12402 0.0083,0.24805 v 2.95589 h -0.777214 v -2.6293 q 0,-0.30592 -0.02894,-0.57878 -0.02481,-0.27698 -0.111621,-0.44235 -0.09509,-0.17776 -0.272852,-0.26458 -0.177767,-0.0909 -0.51263,-0.0909 -0.318327,0 -0.640788,0.1571 -0.318327,0.15709 -0.636654,0.40101 v 3.44785 h -0.777214 v -4.61781 h 0.777214 v 0.51263 q 0.363802,-0.30179 0.72347,-0.47129 0.363802,-0.1695 0.77308,-0.1695 0.471289,0 0.797884,0.19844 0.33073,0.19844 0.49196,0.54984 0.471289,-0.39688 0.859896,-0.57051 0.388607,-0.17777 0.830958,-0.17777 0.760677,0 1.120345,0.46302 0.363802,0.45889 0.363802,1.28571 z"
         id="path5011" />
      <path
         d="m 34.250636,184.10282 q 0,0.57878 -0.165364,1.0418 -0.161231,0.46302 -0.438217,0.77722 -0.293522,0.32659 -0.644922,0.49196 -0.3514,0.16123 -0.77308,0.16123 -0.392741,0 -0.686263,-0.0951 -0.293522,-0.0909 -0.578776,-0.24805 l -0.04961,0.21498 H 30.1868 v -6.43269 h 0.777214 v 2.29857 q 0.326595,-0.26871 0.694531,-0.43821 0.367937,-0.17364 0.826824,-0.17364 0.818555,0 1.289844,0.62839 0.475423,0.62838 0.475423,1.77353 z m -0.802018,0.0207 q 0,-0.82683 -0.272852,-1.25264 -0.272852,-0.42995 -0.880567,-0.42995 -0.338997,0 -0.686263,0.14883 -0.347266,0.14469 -0.644922,0.3762 v 2.64584 q 0.330729,0.14883 0.566374,0.2067 0.239779,0.0579 0.541569,0.0579 0.644922,0 1.008724,-0.42168 0.367937,-0.42581 0.367937,-1.33118 z"
         id="path5013" />
      <path
         d="m 40.923101,180.76659 h -0.04134 q -0.128157,-0.0372 -0.334863,-0.0744 -0.206706,-0.0413 -0.363802,-0.0413 -0.500228,0 -0.727605,0.22324 -0.223242,0.21911 -0.223242,0.79788 v 0.1571 h 1.401465 v 0.65319 h -1.37666 v 3.96462 H 38.47984 v -3.96462 h -0.525033 v -0.65319 h 0.525033 v -0.15296 q 0,-0.82269 0.409277,-1.26091 0.409278,-0.44235 1.182357,-0.44235 0.26045,0 0.467156,0.0248 0.21084,0.0248 0.384472,0.0579 z"
         id="path5015" />
      <path
         d="m 42.200542,186.44687 h -0.777214 v -6.43269 h 0.777214 z"
         id="path5017" />
      <path
         d="m 47.335115,186.44687 h -0.77308 v -0.49196 q -0.103353,0.0703 -0.28112,0.19844 -0.173632,0.12402 -0.338997,0.19843 -0.194304,0.0951 -0.446485,0.1571 -0.252181,0.0661 -0.591178,0.0661 -0.624252,0 -1.058334,-0.41342 -0.434082,-0.41341 -0.434082,-1.05419 0,-0.52504 0.223242,-0.8475 0.227376,-0.32659 0.644922,-0.51263 0.42168,-0.18603 1.012859,-0.25218 0.591178,-0.0662 1.269173,-0.0992 V 183.276 q 0,-0.26458 -0.09508,-0.43821 -0.09095,-0.17364 -0.264584,-0.27286 -0.165364,-0.0951 -0.396875,-0.12815 -0.23151,-0.0331 -0.483692,-0.0331 -0.305924,0 -0.682129,0.0827 -0.376204,0.0785 -0.777214,0.23151 h -0.04134 v -0.78962 q 0.227377,-0.062 0.657325,-0.13643 0.429948,-0.0744 0.847494,-0.0744 0.487825,0 0.847493,0.0827 0.363803,0.0786 0.628386,0.27285 0.260449,0.19017 0.396875,0.49196 0.136426,0.30179 0.136426,0.74828 z m -0.77308,-1.13688 v -1.28571 q -0.355534,0.0207 -0.839225,0.062 -0.479558,0.0413 -0.760678,0.11989 -0.334863,0.0951 -0.541569,0.29765 -0.206706,0.19844 -0.206706,0.54984 0,0.39688 0.239779,0.59945 0.239779,0.19844 0.731739,0.19844 0.409277,0 0.748275,-0.1571 0.338997,-0.16123 0.628385,-0.38447 z"
         id="path5019" />
      <path
         d="m 53.031927,186.44687 h -1.025261 l -1.852084,-2.02158 -0.504362,0.47955 v 1.54203 h -0.777214 v -6.43269 h 0.777214 v 4.12585 l 2.244825,-2.31097 h 0.979786 l -2.145607,2.13321 z"
         id="path5021" />
      <path
         d="m 57.71588,184.21858 h -3.402378 q 0,0.42581 0.128158,0.74414 0.128157,0.31419 0.3514,0.51677 0.214974,0.19843 0.508496,0.29765 0.297656,0.0992 0.65319,0.0992 0.471289,0 0.946713,-0.18603 0.479557,-0.19017 0.682129,-0.37207 h 0.04134 v 0.84749 q -0.392741,0.16536 -0.802018,0.27698 -0.409278,0.11163 -0.859897,0.11163 -1.149284,0 -1.794206,-0.62012 -0.644922,-0.62425 -0.644922,-1.7694 0,-1.13275 0.615983,-1.79834 0.620118,-0.6656 1.628842,-0.6656 0.93431,0 1.438672,0.54571 0.508497,0.5457 0.508497,1.55029 z m -0.756544,-0.59531 q -0.0041,-0.61185 -0.310058,-0.94672 -0.301791,-0.33486 -0.921908,-0.33486 -0.624252,0 -0.996322,0.36794 -0.367937,0.36793 -0.417546,0.91364 z"
         id="path5023" />
      <path
         d="m 62.193131,185.11568 q 0,0.63252 -0.525033,1.03767 -0.520899,0.40514 -1.42627,0.40514 -0.512631,0 -0.942579,-0.11989 -0.425814,-0.12402 -0.715202,-0.26872 v -0.8723 h 0.04134 q 0.367937,0.27699 0.818555,0.44236 0.450619,0.16123 0.864031,0.16123 0.51263,0 0.802018,-0.16537 0.289388,-0.16536 0.289388,-0.5209 0,-0.27285 -0.157096,-0.41341 -0.157097,-0.14056 -0.603581,-0.23978 -0.165365,-0.0372 -0.434082,-0.0868 -0.264584,-0.0496 -0.483692,-0.10749 -0.607715,-0.16123 -0.86403,-0.47129 -0.252181,-0.31419 -0.252181,-0.76895 0,-0.28525 0.115755,-0.53743 0.119889,-0.25218 0.359668,-0.45062 0.231511,-0.1943 0.587045,-0.30592 0.359668,-0.11576 0.802018,-0.11576 0.413412,0 0.835092,0.10335 0.425814,0.0992 0.706934,0.24392 v 0.83095 h -0.04134 q -0.297656,-0.21911 -0.72347,-0.36793 -0.425814,-0.15297 -0.835091,-0.15297 -0.425814,0 -0.719337,0.16537 -0.293522,0.16123 -0.293522,0.48369 0,0.28525 0.177767,0.42995 0.173633,0.14469 0.56224,0.23564 0.214974,0.0496 0.479557,0.0992 0.268718,0.0496 0.446485,0.0909 0.541569,0.12403 0.835091,0.42582 0.293523,0.30592 0.293523,0.81028 z"
         id="path5025" />
      <path
         d="m 64.921649,185.26865 -1.165821,2.70784 h -0.603581 l 0.719336,-2.70784 z"
         id="path5027" />
      <path
         d="m 72.660713,185.11568 q 0,0.63252 -0.525032,1.03767 -0.520899,0.40514 -1.426271,0.40514 -0.51263,0 -0.942578,-0.11989 -0.425814,-0.12402 -0.715202,-0.26872 v -0.8723 h 0.04134 q 0.367936,0.27699 0.818555,0.44236 0.450619,0.16123 0.86403,0.16123 0.512631,0 0.802019,-0.16537 0.289388,-0.16536 0.289388,-0.5209 0,-0.27285 -0.157096,-0.41341 -0.157097,-0.14056 -0.603581,-0.23978 -0.165365,-0.0372 -0.434083,-0.0868 -0.264583,-0.0496 -0.483691,-0.10749 -0.607715,-0.16123 -0.86403,-0.47129 -0.252182,-0.31419 -0.252182,-0.76895 0,-0.28525 0.115756,-0.53743 0.119889,-0.25218 0.359668,-0.45062 0.23151,-0.1943 0.587044,-0.30592 0.359668,-0.11576 0.802019,-0.11576 0.413412,0 0.835091,0.10335 0.425814,0.0992 0.706934,0.24392 v 0.83095 h -0.04134 q -0.297656,-0.21911 -0.72347,-0.36793 -0.425814,-0.15297 -0.835092,-0.15297 -0.425814,0 -0.719336,0.16537 -0.293522,0.16123 -0.293522,0.48369 0,0.28525 0.177767,0.42995 0.173633,0.14469 0.56224,0.23564 0.214974,0.0496 0.479557,0.0992 0.268718,0.0496 0.446485,0.0909 0.541569,0.12403 0.835091,0.42582 0.293522,0.30592 0.293522,0.81028 z"
         id="path5029" />
      <path
         d="m 77.638191,186.44687 h -0.777214 v -2.6293 q 0,-0.31833 -0.03721,-0.59531 -0.03721,-0.28112 -0.136426,-0.43822 -0.103353,-0.17363 -0.297657,-0.25631 -0.194303,-0.0868 -0.504362,-0.0868 -0.318327,0 -0.665592,0.1571 -0.347266,0.15709 -0.665593,0.40101 v 3.44785 h -0.777214 v -6.43269 h 0.777214 v 2.32751 q 0.363802,-0.30179 0.752409,-0.47129 0.388607,-0.1695 0.797884,-0.1695 0.748276,0 1.141017,0.45062 0.392741,0.45062 0.392741,1.29811 z"
         id="path5031" />
      <path
         d="m 83.000136,184.21858 h -3.402378 q 0,0.42581 0.128158,0.74414 0.128157,0.31419 0.3514,0.51677 0.214974,0.19843 0.508496,0.29765 0.297656,0.0992 0.65319,0.0992 0.471289,0 0.946713,-0.18603 0.479557,-0.19017 0.682129,-0.37207 h 0.04134 v 0.84749 q -0.392741,0.16536 -0.802018,0.27698 -0.409278,0.11163 -0.859897,0.11163 -1.149284,0 -1.794206,-0.62012 -0.644922,-0.62425 -0.644922,-1.7694 0,-1.13275 0.615983,-1.79834 0.620118,-0.6656 1.628842,-0.6656 0.93431,0 1.438672,0.54571 0.508497,0.5457 0.508497,1.55029 z m -0.756544,-0.59531 q -0.0041,-0.61185 -0.310058,-0.94672 -0.301791,-0.33486 -0.921908,-0.33486 -0.624252,0 -0.996322,0.36794 -0.367937,0.36793 -0.417546,0.91364 z"
         id="path5033" />
      <path
         d="m 88.043761,184.21858 h -3.402378 q 0,0.42581 0.128157,0.74414 0.128158,0.31419 0.3514,0.51677 0.214974,0.19843 0.508497,0.29765 0.297656,0.0992 0.65319,0.0992 0.471289,0 0.946713,-0.18603 0.479557,-0.19017 0.682129,-0.37207 h 0.04134 v 0.84749 q -0.392741,0.16536 -0.802019,0.27698 -0.409277,0.11163 -0.859896,0.11163 -1.149284,0 -1.794206,-0.62012 -0.644922,-0.62425 -0.644922,-1.7694 0,-1.13275 0.615983,-1.79834 0.620117,-0.6656 1.628842,-0.6656 0.93431,0 1.438672,0.54571 0.508497,0.5457 0.508497,1.55029 z m -0.756544,-0.59531 q -0.0041,-0.61185 -0.310058,-0.94672 -0.301791,-0.33486 -0.921908,-0.33486 -0.624252,0 -0.996322,0.36794 -0.367937,0.36793 -0.417546,0.91364 z"
         id="path5035" />
      <path
         d="m 91.619767,186.40553 q -0.219109,0.0579 -0.479558,0.0951 -0.256315,0.0372 -0.458887,0.0372 -0.706934,0 -1.07487,-0.38034 -0.367936,-0.38034 -0.367936,-1.21956 v -2.45567 h -0.525033 v -0.65319 h 0.525033 v -1.32705 h 0.777213 v 1.32705 h 1.604038 v 0.65319 h -1.604038 v 2.10427 q 0,0.3638 0.01654,0.5705 0.01654,0.20258 0.115755,0.38034 0.09095,0.16537 0.248047,0.24392 0.161231,0.0744 0.487826,0.0744 0.190169,0 0.396875,-0.0537 0.206706,-0.0579 0.297656,-0.0951 h 0.04134 z"
         id="path5037" />
      <path
         d="m 95.861374,185.11568 q 0,0.63252 -0.525033,1.03767 -0.520898,0.40514 -1.42627,0.40514 -0.51263,0 -0.942578,-0.11989 -0.425814,-0.12402 -0.715202,-0.26872 v -0.8723 h 0.04134 q 0.367936,0.27699 0.818555,0.44236 0.450618,0.16123 0.86403,0.16123 0.51263,0 0.802019,-0.16537 0.289388,-0.16536 0.289388,-0.5209 0,-0.27285 -0.157097,-0.41341 -0.157096,-0.14056 -0.603581,-0.23978 -0.165364,-0.0372 -0.434082,-0.0868 -0.264583,-0.0496 -0.483691,-0.10749 -0.607716,-0.16123 -0.864031,-0.47129 -0.252181,-0.31419 -0.252181,-0.76895 0,-0.28525 0.115755,-0.53743 0.11989,-0.25218 0.359669,-0.45062 0.23151,-0.1943 0.587044,-0.30592 0.359668,-0.11576 0.802019,-0.11576 0.413411,0 0.835091,0.10335 0.425814,0.0992 0.706934,0.24392 v 0.83095 h -0.04134 q -0.297657,-0.21911 -0.723471,-0.36793 -0.425814,-0.15297 -0.835091,-0.15297 -0.425814,0 -0.719336,0.16537 -0.293523,0.16123 -0.293523,0.48369 0,0.28525 0.177767,0.42995 0.173633,0.14469 0.56224,0.23564 0.214974,0.0496 0.479558,0.0992 0.268717,0.0496 0.446484,0.0909 0.54157,0.12403 0.835092,0.42582 0.293522,0.30592 0.293522,0.81028 z"
         id="path5039" />
      <path
         d="m 98.589892,185.26865 -1.165821,2.70784 H 96.82049 l 0.719337,-2.70784 z"
         id="path5041" />
      <path
         d="m 105.91141,182.67655 h -0.0413 q -0.17363,-0.0413 -0.339,-0.0579 -0.16123,-0.0207 -0.38447,-0.0207 -0.35967,0 -0.69453,0.16123 -0.33487,0.15709 -0.64492,0.40927 v 3.27836 h -0.77722 V 181.829 h 0.77722 v 0.68213 q 0.46302,-0.37207 0.81442,-0.52503 0.35553,-0.1571 0.72347,-0.1571 0.20257,0 0.29352,0.0124 0.091,0.008 0.27285,0.0372 z"
         id="path5043" />
      <path
         d="m 107.48651,181.05598 h -0.87644 v -0.80615 h 0.87644 z m -0.0496,5.39089 h -0.77722 v -4.61781 h 0.77722 z"
         id="path5045" />
      <path
         d="m 113.04689,184.10282 q 0,0.57878 -0.16536,1.0418 -0.16123,0.46302 -0.43822,0.77722 -0.29352,0.32659 -0.64492,0.49196 -0.3514,0.16123 -0.77308,0.16123 -0.39274,0 -0.68626,-0.0951 -0.29353,-0.0909 -0.57878,-0.24805 l -0.0496,0.21498 h -0.7276 v -6.43269 h 0.77721 v 2.29857 q 0.3266,-0.26871 0.69453,-0.43821 0.36794,-0.17364 0.82683,-0.17364 0.81855,0 1.28984,0.62839 0.47542,0.62838 0.47542,1.77353 z m -0.80202,0.0207 q 0,-0.82683 -0.27285,-1.25264 -0.27285,-0.42995 -0.88056,-0.42995 -0.339,0 -0.68627,0.14883 -0.34726,0.14469 -0.64492,0.3762 v 2.64584 q 0.33073,0.14883 0.56637,0.2067 0.23978,0.0579 0.54157,0.0579 0.64493,0 1.00873,-0.42168 0.36793,-0.42581 0.36793,-1.33118 z"
         id="path5047" />
      <path
         d="m 118.32203,184.10282 q 0,0.57878 -0.16536,1.0418 -0.16123,0.46302 -0.43822,0.77722 -0.29352,0.32659 -0.64492,0.49196 -0.3514,0.16123 -0.77308,0.16123 -0.39274,0 -0.68626,-0.0951 -0.29353,-0.0909 -0.57878,-0.24805 l -0.0496,0.21498 h -0.7276 v -6.43269 h 0.77721 v 2.29857 q 0.32659,-0.26871 0.69453,-0.43821 0.36794,-0.17364 0.82682,-0.17364 0.81856,0 1.28985,0.62839 0.47542,0.62838 0.47542,1.77353 z m -0.80202,0.0207 q 0,-0.82683 -0.27285,-1.25264 -0.27285,-0.42995 -0.88056,-0.42995 -0.339,0 -0.68627,0.14883 -0.34726,0.14469 -0.64492,0.3762 v 2.64584 q 0.33073,0.14883 0.56637,0.2067 0.23978,0.0579 0.54157,0.0579 0.64492,0 1.00873,-0.42168 0.36793,-0.42581 0.36793,-1.33118 z"
         id="path5049" />
      <path
         d="m 123.46901,184.14003 q 0,1.12862 -0.57878,1.78181 -0.57878,0.65319 -1.55029,0.65319 -0.97979,0 -1.55857,-0.65319 -0.57464,-0.65319 -0.57464,-1.78181 0,-1.12861 0.57464,-1.7818 0.57878,-0.65733 1.55857,-0.65733 0.97151,0 1.55029,0.65733 0.57878,0.65319 0.57878,1.7818 z m -0.80202,0 q 0,-0.8971 -0.3514,-1.33118 -0.3514,-0.43822 -0.97565,-0.43822 -0.63252,0 -0.98392,0.43822 -0.34727,0.43408 -0.34727,1.33118 0,0.86817 0.3514,1.31879 0.3514,0.44648 0.97979,0.44648 0.62011,0 0.97151,-0.44235 0.35554,-0.44649 0.35554,-1.32292 z"
         id="path5051" />
      <path
         d="m 128.53743,186.44687 h -0.77721 v -2.6293 q 0,-0.31833 -0.0372,-0.59531 -0.0372,-0.28112 -0.13643,-0.43822 -0.10335,-0.17363 -0.29765,-0.25631 -0.19431,-0.0868 -0.50437,-0.0868 -0.31832,0 -0.66559,0.1571 -0.34726,0.15709 -0.66559,0.40101 v 3.44785 h -0.77722 v -4.61781 h 0.77722 v 0.51263 q 0.3638,-0.30179 0.75241,-0.47129 0.3886,-0.1695 0.79788,-0.1695 0.74828,0 1.14102,0.45062 0.39274,0.45062 0.39274,1.29811 z"
         id="path5053" />
      <path
         d="m 133.33301,185.11568 q 0,0.63252 -0.52503,1.03767 -0.5209,0.40514 -1.42627,0.40514 -0.51264,0 -0.94258,-0.11989 -0.42582,-0.12402 -0.71521,-0.26872 v -0.8723 h 0.0413 q 0.36793,0.27699 0.81855,0.44236 0.45062,0.16123 0.86403,0.16123 0.51263,0 0.80202,-0.16537 0.28939,-0.16536 0.28939,-0.5209 0,-0.27285 -0.1571,-0.41341 -0.1571,-0.14056 -0.60358,-0.23978 -0.16536,-0.0372 -0.43408,-0.0868 -0.26459,-0.0496 -0.48369,-0.10749 -0.60772,-0.16123 -0.86403,-0.47129 -0.25218,-0.31419 -0.25218,-0.76895 0,-0.28525 0.11575,-0.53743 0.11989,-0.25218 0.35967,-0.45062 0.23151,-0.1943 0.58704,-0.30592 0.35967,-0.11576 0.80202,-0.11576 0.41341,0 0.83509,0.10335 0.42582,0.0992 0.70694,0.24392 v 0.83095 h -0.0413 q -0.29766,-0.21911 -0.72347,-0.36793 -0.42582,-0.15297 -0.8351,-0.15297 -0.42581,0 -0.71933,0.16537 -0.29352,0.16123 -0.29352,0.48369 0,0.28525 0.17776,0.42995 0.17364,0.14469 0.56224,0.23564 0.21498,0.0496 0.47956,0.0992 0.26872,0.0496 0.44648,0.0909 0.54157,0.12403 0.8351,0.42582 0.29352,0.30592 0.29352,0.81028 z"
         id="path5055" />
      <path
         d="m 136.06153,185.26865 -1.16582,2.70784 h -0.60359 l 0.71934,-2.70784 z"
         id="path5057" />
      <path
         d="m 146.30999,181.82906 -1.20303,4.61781 h -0.71933 l -1.18649,-3.55948 -1.17823,3.55948 h -0.7152 l -1.21543,-4.61781 h 0.81029 l 0.84749,3.57601 1.15342,-3.57601 h 0.64079 l 1.18236,3.57601 0.80201,-3.57601 z"
         id="path5059" />
      <path
         d="m 151.29159,186.44687 h -0.77721 v -2.6293 q 0,-0.31833 -0.0372,-0.59531 -0.0372,-0.28112 -0.13642,-0.43822 -0.10335,-0.17363 -0.29766,-0.25631 -0.1943,-0.0868 -0.50436,-0.0868 -0.31833,0 -0.66559,0.1571 -0.34727,0.15709 -0.6656,0.40101 v 3.44785 h -0.77721 v -6.43269 h 0.77721 v 2.32751 q 0.36381,-0.30179 0.75241,-0.47129 0.38861,-0.1695 0.79789,-0.1695 0.74827,0 1.14101,0.45062 0.39274,0.45062 0.39274,1.29811 z"
         id="path5061" />
      <path
         d="m 156.37656,186.44687 h -0.77308 v -0.49196 q -0.10335,0.0703 -0.28112,0.19844 -0.17363,0.12402 -0.339,0.19843 -0.1943,0.0951 -0.44648,0.1571 -0.25218,0.0661 -0.59118,0.0661 -0.62425,0 -1.05833,-0.41342 -0.43408,-0.41341 -0.43408,-1.05419 0,-0.52504 0.22324,-0.8475 0.22737,-0.32659 0.64492,-0.51263 0.42168,-0.18603 1.01286,-0.25218 0.59118,-0.0662 1.26917,-0.0992 V 183.276 q 0,-0.26458 -0.0951,-0.43821 -0.0909,-0.17364 -0.26459,-0.27286 -0.16536,-0.0951 -0.39687,-0.12815 -0.23151,-0.0331 -0.48369,-0.0331 -0.30593,0 -0.68213,0.0827 -0.37621,0.0785 -0.77722,0.23151 h -0.0413 v -0.78962 q 0.22738,-0.062 0.65733,-0.13643 0.42995,-0.0744 0.84749,-0.0744 0.48783,0 0.8475,0.0827 0.3638,0.0786 0.62838,0.27285 0.26045,0.19017 0.39688,0.49196 0.13642,0.30179 0.13642,0.74828 z m -0.77308,-1.13688 v -1.28571 q -0.35553,0.0207 -0.83922,0.062 -0.47956,0.0413 -0.76068,0.11989 -0.33486,0.0951 -0.54157,0.29765 -0.20671,0.19844 -0.20671,0.54984 0,0.39688 0.23978,0.59945 0.23978,0.19844 0.73174,0.19844 0.40928,0 0.74828,-0.1571 0.33899,-0.16123 0.62838,-0.38447 z"
         id="path5063" />
      <path
         d="m 160.27917,186.40553 q -0.21911,0.0579 -0.47956,0.0951 -0.25632,0.0372 -0.45889,0.0372 -0.70693,0 -1.07487,-0.38034 -0.36793,-0.38034 -0.36793,-1.21956 v -2.45567 h -0.52504 v -0.65319 h 0.52504 v -1.32705 h 0.77721 v 1.32705 h 1.60404 v 0.65319 h -1.60404 v 2.10427 q 0,0.3638 0.0165,0.5705 0.0165,0.20258 0.11575,0.38034 0.0909,0.16537 0.24805,0.24392 0.16123,0.0744 0.48782,0.0744 0.19017,0 0.39688,-0.0537 0.20671,-0.0579 0.29766,-0.0951 h 0.0413 z"
         id="path5065" />
      <path
         d="m 165.08714,184.21858 h -3.40238 q 0,0.42581 0.12816,0.74414 0.12816,0.31419 0.3514,0.51677 0.21498,0.19843 0.5085,0.29765 0.29765,0.0992 0.65319,0.0992 0.47129,0 0.94671,-0.18603 0.47956,-0.19017 0.68213,-0.37207 h 0.0413 v 0.84749 q -0.39274,0.16536 -0.80202,0.27698 -0.40928,0.11163 -0.85989,0.11163 -1.14929,0 -1.79421,-0.62012 -0.64492,-0.62425 -0.64492,-1.7694 0,-1.13275 0.61598,-1.79834 0.62012,-0.6656 1.62884,-0.6656 0.93431,0 1.43867,0.54571 0.5085,0.5457 0.5085,1.55029 z m -0.75654,-0.59531 q -0.004,-0.61185 -0.31006,-0.94672 -0.30179,-0.33486 -0.92191,-0.33486 -0.62425,0 -0.99632,0.36794 -0.36794,0.36793 -0.41755,0.91364 z"
         id="path5067" />
      <path
         d="m 170.25892,181.82906 -1.86862,4.61781 h -0.78134 l -1.85622,-4.61781 h 0.84336 l 1.4304,3.67523 1.418,-3.67523 z"
         id="path5069" />
      <path
         d="m 175.14133,184.21858 h -3.40238 q 0,0.42581 0.12816,0.74414 0.12815,0.31419 0.3514,0.51677 0.21497,0.19843 0.50849,0.29765 0.29766,0.0992 0.65319,0.0992 0.47129,0 0.94671,-0.18603 0.47956,-0.19017 0.68213,-0.37207 h 0.0413 v 0.84749 q -0.39274,0.16536 -0.80201,0.27698 -0.40928,0.11163 -0.8599,0.11163 -1.14928,0 -1.79421,-0.62012 -0.64492,-0.62425 -0.64492,-1.7694 0,-1.13275 0.61598,-1.79834 0.62012,-0.6656 1.62885,-0.6656 0.93431,0 1.43867,0.54571 0.5085,0.5457 0.5085,1.55029 z m -0.75655,-0.59531 q -0.004,-0.61185 -0.31006,-0.94672 -0.30179,-0.33486 -0.9219,-0.33486 -0.62426,0 -0.99633,0.36794 -0.36793,0.36793 -0.41754,0.91364 z"
         id="path5071" />
      <path
         d="m 179.20102,182.67655 h -0.0413 q -0.17363,-0.0413 -0.33899,-0.0579 -0.16123,-0.0207 -0.38448,-0.0207 -0.35966,0 -0.69453,0.16123 -0.33486,0.15709 -0.64492,0.40927 v 3.27836 h -0.77721 V 181.829 h 0.77721 v 0.68213 q 0.46302,-0.37207 0.81442,-0.52503 0.35553,-0.1571 0.72347,-0.1571 0.20257,0 0.29352,0.0124 0.091,0.008 0.27286,0.0372 z"
         id="path5073" />
      <path
         d="m 181.2102,186.44687 h -0.98805 v -1.17822 h 0.98805 z"
         id="path5075" />
      <path
         d="m 191.53723,186.44687 h -0.81856 v -5.30407 l -1.71152,3.60908 h -0.48783 l -1.69912,-3.60908 v 5.30407 h -0.76481 v -6.1557 h 1.11621 l 1.64125,3.42718 1.5875,-3.42718 h 1.13688 z"
         id="path5077" />
      <path
         d="m 196.72555,186.44687 h -0.77308 v -0.49196 q -0.10336,0.0703 -0.28112,0.19844 -0.17364,0.12402 -0.339,0.19843 -0.19431,0.0951 -0.44649,0.1571 -0.25218,0.0661 -0.59117,0.0661 -0.62426,0 -1.05834,-0.41342 -0.43408,-0.41341 -0.43408,-1.05419 0,-0.52504 0.22324,-0.8475 0.22738,-0.32659 0.64492,-0.51263 0.42168,-0.18603 1.01286,-0.25218 0.59118,-0.0662 1.26918,-0.0992 V 183.276 q 0,-0.26458 -0.0951,-0.43821 -0.0909,-0.17364 -0.26458,-0.27286 -0.16537,-0.0951 -0.39688,-0.12815 -0.23151,-0.0331 -0.48369,-0.0331 -0.30592,0 -0.68213,0.0827 -0.3762,0.0785 -0.77721,0.23151 h -0.0413 v -0.78962 q 0.22737,-0.062 0.65732,-0.13643 0.42995,-0.0744 0.8475,-0.0744 0.48782,0 0.84749,0.0827 0.3638,0.0786 0.62838,0.27285 0.26045,0.19017 0.39688,0.49196 0.13643,0.30179 0.13643,0.74828 z m -0.77308,-1.13688 v -1.28571 q -0.35554,0.0207 -0.83923,0.062 -0.47956,0.0413 -0.76068,0.11989 -0.33486,0.0951 -0.54157,0.29765 -0.2067,0.19844 -0.2067,0.54984 0,0.39688 0.23978,0.59945 0.23978,0.19844 0.73174,0.19844 0.40927,0 0.74827,-0.1571 0.339,-0.16123 0.62839,-0.38447 z"
         id="path5079" />
      <path
         d="m 201.97587,186.44687 h -0.77721 v -0.48369 q -0.33486,0.28939 -0.69867,0.45062 -0.3638,0.16123 -0.78961,0.16123 -0.82683,0 -1.31465,-0.63666 -0.48369,-0.63665 -0.48369,-1.76527 0,-0.58704 0.16536,-1.04593 0.1695,-0.45888 0.45475,-0.78134 0.28112,-0.3142 0.65319,-0.47956 0.37621,-0.16537 0.77722,-0.16537 0.3638,0 0.64492,0.0786 0.28112,0.0744 0.59118,0.23565 v -2.00092 h 0.77721 z m -0.77721,-1.13688 v -2.64997 q -0.31419,-0.14056 -0.56224,-0.19431 -0.24805,-0.0537 -0.54157,-0.0537 -0.65319,0 -1.01699,0.45475 -0.3638,0.45476 -0.3638,1.28985 0,0.82269 0.28112,1.25264 0.28112,0.42581 0.90123,0.42581 0.33073,0 0.66973,-0.14469 0.339,-0.14883 0.63252,-0.38034 z"
         id="path5081" />
      <path
         d="m 207.37089,184.21858 h -3.40237 q 0,0.42581 0.12815,0.74414 0.12816,0.31419 0.3514,0.51677 0.21498,0.19843 0.5085,0.29765 0.29766,0.0992 0.65319,0.0992 0.47129,0 0.94671,-0.18603 0.47956,-0.19017 0.68213,-0.37207 h 0.0413 v 0.84749 q -0.39274,0.16536 -0.80202,0.27698 -0.40927,0.11163 -0.85989,0.11163 -1.14929,0 -1.79421,-0.62012 -0.64492,-0.62425 -0.64492,-1.7694 0,-1.13275 0.61598,-1.79834 0.62012,-0.6656 1.62884,-0.6656 0.93432,0 1.43868,0.54571 0.50849,0.5457 0.50849,1.55029 z m -0.75654,-0.59531 q -0.004,-0.61185 -0.31006,-0.94672 -0.30179,-0.33486 -0.92191,-0.33486 -0.62425,0 -0.99632,0.36794 -0.36793,0.36793 -0.41754,0.91364 z"
         id="path5083" />
      <path
         d="m 215.39108,184.21858 h -3.40238 q 0,0.42581 0.12816,0.74414 0.12816,0.31419 0.3514,0.51677 0.21497,0.19843 0.5085,0.29765 0.29765,0.0992 0.65319,0.0992 0.47129,0 0.94671,-0.18603 0.47956,-0.19017 0.68213,-0.37207 h 0.0413 v 0.84749 q -0.39274,0.16536 -0.80202,0.27698 -0.40928,0.11163 -0.85989,0.11163 -1.14929,0 -1.79421,-0.62012 -0.64492,-0.62425 -0.64492,-1.7694 0,-1.13275 0.61598,-1.79834 0.62012,-0.6656 1.62884,-0.6656 0.93431,0 1.43867,0.54571 0.5085,0.5457 0.5085,1.55029 z m -0.75654,-0.59531 q -0.004,-0.61185 -0.31006,-0.94672 -0.30179,-0.33486 -0.92191,-0.33486 -0.62425,0 -0.99632,0.36794 -0.36794,0.36793 -0.41755,0.91364 z"
         id="path5085" />
      <path
         d="m 220.1577,186.44687 h -0.77307 v -0.49196 q -0.10336,0.0703 -0.28112,0.19844 -0.17364,0.12402 -0.339,0.19843 -0.19431,0.0951 -0.44649,0.1571 -0.25218,0.0661 -0.59118,0.0661 -0.62425,0 -1.05833,-0.41342 -0.43408,-0.41341 -0.43408,-1.05419 0,-0.52504 0.22324,-0.8475 0.22738,-0.32659 0.64492,-0.51263 0.42168,-0.18603 1.01286,-0.25218 0.59118,-0.0662 1.26918,-0.0992 V 183.276 q 0,-0.26458 -0.0951,-0.43821 -0.0909,-0.17364 -0.26458,-0.27286 -0.16537,-0.0951 -0.39688,-0.12815 -0.23151,-0.0331 -0.48369,-0.0331 -0.30592,0 -0.68213,0.0827 -0.3762,0.0785 -0.77721,0.23151 h -0.0413 v -0.78962 q 0.22737,-0.062 0.65732,-0.13643 0.42995,-0.0744 0.84749,-0.0744 0.48783,0 0.8475,0.0827 0.3638,0.0786 0.62838,0.27285 0.26045,0.19017 0.39688,0.49196 0.13642,0.30179 0.13642,0.74828 z m -0.77307,-1.13688 v -1.28571 q -0.35554,0.0207 -0.83923,0.062 -0.47956,0.0413 -0.76068,0.11989 -0.33486,0.0951 -0.54157,0.29765 -0.2067,0.19844 -0.2067,0.54984 0,0.39688 0.23978,0.59945 0.23977,0.19844 0.73173,0.19844 0.40928,0 0.74828,-0.1571 0.339,-0.16123 0.62839,-0.38447 z"
         id="path5087" />
      <path
         d="m 224.96155,185.11568 q 0,0.63252 -0.52503,1.03767 -0.5209,0.40514 -1.42627,0.40514 -0.51264,0 -0.94258,-0.11989 -0.42582,-0.12402 -0.71521,-0.26872 v -0.8723 h 0.0413 q 0.36793,0.27699 0.81855,0.44236 0.45062,0.16123 0.86403,0.16123 0.51263,0 0.80202,-0.16537 0.28939,-0.16536 0.28939,-0.5209 0,-0.27285 -0.1571,-0.41341 -0.1571,-0.14056 -0.60358,-0.23978 -0.16536,-0.0372 -0.43408,-0.0868 -0.26459,-0.0496 -0.48369,-0.10749 -0.60772,-0.16123 -0.86403,-0.47129 -0.25218,-0.31419 -0.25218,-0.76895 0,-0.28525 0.11575,-0.53743 0.11989,-0.25218 0.35967,-0.45062 0.23151,-0.1943 0.58704,-0.30592 0.35967,-0.11576 0.80202,-0.11576 0.41341,0 0.83509,0.10335 0.42582,0.0992 0.70694,0.24392 v 0.83095 h -0.0413 q -0.29766,-0.21911 -0.72347,-0.36793 -0.42582,-0.15297 -0.8351,-0.15297 -0.42581,0 -0.71933,0.16537 -0.29352,0.16123 -0.29352,0.48369 0,0.28525 0.17776,0.42995 0.17364,0.14469 0.56224,0.23564 0.21498,0.0496 0.47956,0.0992 0.26872,0.0496 0.44648,0.0909 0.54157,0.12403 0.8351,0.42582 0.29352,0.30592 0.29352,0.81028 z"
         id="path5089" />
      <path
         d="m 230.07132,181.82906 -2.69545,6.32106 h -0.83095 l 0.85989,-1.92649 -1.83968,-4.39457 h 0.84336 l 1.418,3.42305 1.43041,-3.42305 z"
         id="path5091" />
      <path
         d="m 232.35749,186.44687 h -0.98805 v -1.17822 h 0.98805 z"
         id="path5093" />
    </g>
    <g
       id="g1803"
       transform="matrix(1.6722619,0,0,1.6722619,-25.709243,154.6965)">
      <g
         id="g846"
         transform="matrix(0.26458333,0,0,0.26458333,-23.229326,-43.315378)">
        <path
           class="i"
           d="M 86.2,131.5 V 105.3 H 55.3 v 26.2 h -6.6 v -56 h 6.6 v 26.2 H 86.2 V 75.5 h 6.6 v 56 z"
           id="path830"
           style="fill:#fac205;fill-opacity:1" />
        <path
           class="i"
           d="m 324.8,131.5 -38.6,-47 v 47 h -3.7 v -56 h 4.8 l 38.6,47 v -47 h 3.7 v 56 z"
           id="path832"
           style="fill:#fac205;fill-opacity:1" />
        <path
           class="i"
           d="m 347.6,131.5 v -56 h 38.1 v 3.7 h -31.5 v 22.5 h 25.4 v 3.7 h -25.4 v 22.5 h 33.4 v 3.7 h -40 z"
           id="path834"
           style="fill:#fac205;fill-opacity:1" />
        <path
           class="k"
           d="m 478.6,79.2 v 52.3 H 472 V 79.2 h -18.7 v -3.7 h 44 v 3.7 z"
           id="path836"
           style="fill:#734f96;fill-opacity:1" />
        <path
           class="k"
           d="m 527.8,132.3 c -16.2,0 -25,-11.8 -25,-28.8 0,-17 8.8,-28.8 25,-28.8 16.2,0 25,11.8 25,28.8 -0.1,17 -8.9,28.8 -25,28.8 z m 0,-53.9 c -12.6,0 -17.2,11.1 -17.2,25.1 0,14 4.6,25.1 17.2,25.1 12.6,0 17.1,-11.1 17.1,-25.1 0,-14 -4.7,-25.1 -17.1,-25.1 z"
           id="path838"
           style="fill:#734f96;fill-opacity:1" />
        <path
           class="k"
           d="m 589.3,132.3 c -16.2,0 -25,-11.8 -25,-28.8 0,-17 8.8,-28.8 25,-28.8 16.2,0 25,11.8 25,28.8 -0.1,17 -8.9,28.8 -25,28.8 z m 0,-53.9 c -12.6,0 -17.2,11.1 -17.2,25.1 0,14 4.6,25.1 17.2,25.1 12.6,0 17.1,-11.1 17.1,-25.1 0,-14 -4.6,-25.1 -17.1,-25.1 z"
           id="path840"
           style="fill:#734f96;fill-opacity:1" />
        <path
           class="k"
           d="m 629,131.5 v -56 h 6.6 v 52.3 H 661 v 3.7 z"
           id="path842"
           style="fill:#734f96;fill-opacity:1" />
        <path
           class="k"
           d="m 690.3,132.8 c -7.5,0 -14.7,-2.4 -21,-6.4 v -3.2 c 6.2,4 13.6,5.9 21,5.9 7.4,0 14.8,-4.9 14.8,-12.2 0,-7.3 -8.1,-10.2 -15.7,-11.8 -9.5,-2 -19.3,-6.6 -19.3,-15.6 0,-9 9.8,-15.3 20.2,-15.3 6.5,0 12.8,2.4 17.9,6.4 v 3.2 c -5.1,-4 -11.4,-5.9 -17.9,-5.9 -7,0 -13.8,3.6 -13.8,9.9 0,6.3 7.8,8.2 14.6,9.6 10.3,2.2 20.3,8 20.3,17.8 0,10.5 -10,17.6 -21.1,17.6 z"
           id="path844"
           style="fill:#734f96;fill-opacity:1" />
      </g>
      <g
         id="g866"
         transform="matrix(0.26458333,0,0,0.26458333,-23.229326,-43.315378)">
        <path
           d="m 418.3,101.75 c 2.9,-0.7 5.7,0.1 8.6,0.3 0.2,0.3 0.4,0.5 0.5,0.8 -0.1,0.2 -0.2,0.3 -0.4,0.3 -1.3,0.1 -2.6,-0.5 -3.9,-0.5 -0.8,0 -1.7,-0.2 -2.4,0.4 -1.2,0.2 -1.6,-1 -2.4,-1.3 z"
           id="path848"
           style="fill:#734f96;fill-opacity:1" />
        <path
           d="m 428.21454,103.17897 c -0.6,1.5 0.21423,3.35745 -0.58581,4.85745 C 426.51334,111.01131 427.1,107.75 426.9,107.65 c -0.2,-1.5 -0.1,-3.1 0,-4.6 0,-0.1 0.1,-0.1 0.1,-0.2 0.4,0 0.91454,-0.37103 1.21454,0.32897 z"
           id="path850"
           sodipodi:nodetypes="cccccc"
           style="fill:#734f96;fill-opacity:1" />
        <path
           class="j"
           d="m 408.5,108.55 c 4.8,1.2 8.4,2.8 10.1,4 1.1,0.7 2,1.8 2.1,1.9 2.6,2.3 1.4,3.1 -0.7,5 -0.7,0.6 -1.4,0.1 -1.9,-0.3 -3.3,-3.1 -7.3,-5 -11.9,-5.6 -0.4,-0.1 -1.2,-0.2 -1.6,-0.7 -0.6,-0.8 0,-2 0,-2.2 1.1,-1.9 3.7,-2.1 3.9,-2.1 z"
           id="path852"
           style="fill:#fac205;fill-opacity:1" />
        <path
           class="j"
           d="m 425.63357,110.32056 c 1,0.9 0.66643,1.52944 -0.13357,2.62944 -0.2,0.3 0.75138,1.47056 0.45138,1.67056 -1.2,0.8 -1.9,0 -2.6,-0.7 -2.4,-2.4 -6.35138,-4.97056 -9.65138,-5.87056 -1.2,-0.4 -4,-1.1 -5.3,-1.3 -0.7,-0.1 0.2,0 0.7,-1 l 2.1,-1.5 c 0.3,-0.2 0.5,-0.3 0.8,-0.4 2.1,-0.6 4.1,0.4 6.5,1.5 2.2,1 4.2,2.2 6,3.7 0.2,0.1 0.93357,1.07056 1.13357,1.27056 z"
           id="path854"
           sodipodi:nodetypes="ccsscccccccc"
           style="fill:#fac205;fill-opacity:1" />
        <path
           class="j"
           d="m 406.2,118.85 v 0 l -0.8,-0.4 c -0.2,-0.2 -0.3,-0.6 -0.3,-1 -0.2,-2.5 0,-2.6 2.4,-2 2.9,0.6 5.3,2.1 7.4,4.1 0.7,0.7 1.3,1.4 1.3,2.5 -0.6,0.6 -1.4,1.2 -2.3,1.4 -0.3,0.2 -0.7,0.2 -1,0.1 -0.4,-0.1 -0.6,-0.4 -0.7,-0.4 -0.3,-0.5 -2,-1.7 -6,-4.3 z"
           id="path856"
           style="fill:#fac205;fill-opacity:1" />
        <path
           class="j"
           d="m 427.01442,109.36455 c -1,-1.2 -3.44363,-3.30037 -6.04363,-4.70037 -2.2,-1.2 -4.3,-1.8 -5.7,-2.1 v -0.1 c 0.1,-0.5 2.7,-0.5 3.5,-0.5 1.7,0 4.72921,0.28582 8.22921,1.18582 0.3,0.9 0.7,2.3 0.4,4.1 -0.1,0.8 -0.18558,1.61455 -0.38558,2.11455 z"
           id="path858"
           sodipodi:nodetypes="ccccsccc"
           style="fill:#fac205;fill-opacity:1" />
        <path
           d="m 428.5,102.85 c 1.8,2 1.9,4.3 1.3,6.8 -1.3,5.6 -4.6,9.9 -8.8,13.5 -5.7,4.9 -12.2,8.8 -17.9,13.8 -2.2,1.9 -4.4,3.7 -6.9,5.3 1.4,-2 2.7,-4 4.1,-5.9 3,-3.9 3.6,-8 1.9,-12.8 -3.2,-9.1 0.9,-19 9.4,-23.3 1,-0.5 2,-0.8 3.1,-1.2 1.1,-0.4 2.2,-0.2 3.7,-0.4 -1.7,-0.7 -3.1,-1.2 -4.4,-1.8 -7.1,-3.2 -13.1,-7.7 -17,-14.6 -1,-1.8 -1.8,-3.8 -2.1,-5.8 -0.8,-6.4 3.1,-11 9.7,-11.6 9.4,-0.9 17.4,4 21.5,13.2 3,6.7 4.1,13.8 3.4,21.1 -0.6,-0.2 -0.5,-0.7 -0.5,-1.1 -0.4,-4.7 -2.2,-9 -4.2,-13.1 -3.3,-6.9 -8.7,-11.4 -16.4,-12.8 -2.9,-0.5 -5.7,0.1 -7.4,2.8 -1.7,2.6 -1.5,5.5 -0.1,8.2 2,3.8 5.3,6.4 9,8.4 3.3,1.8 6.9,3.4 10.3,5.1 2.8,1 6.7,3.6 8.3,6.2 -1.2,0.7 -1.08415,0.76293 -5.3,-0.8 -1.5,-0.2 -3.1,-0.3 -4.6,0 -2.2,0.3 -4.5,0.6 -6.4,1.8 -0.9,0.7 -1.9,1.3 -2.9,2 -0.3,0.3 -0.6,0.5 -0.9,0.9 -0.8,0.9 -1.4,1.9 -1.9,3 -0.2,0.4 -0.3,0.9 -0.4,1.3 -1,2.7 -1.1,5.5 -0.7,8.4 0.1,0.2 0.1,0.5 0.2,0.8 1,4.2 3.3,5.4 7.2,3.7 0.4,-0.2 0.7,-0.3 1.1,-0.5 1,-0.4 1.9,-1 2.8,-1.6 2.4,-1.8 4.5,-3.9 6.5,-6.1 0.5,-0.7 1.1,-1.4 1.6,-2 0.5,-0.8 1,-1.6 1.4,-2.5 0.5,-1.2 1.1,-2.4 1.3,-3.8 0.2,-0.9 0.1,-1.9 0.2,-2.8 -2.95785,-3.29387 -0.2,-1.6 0.8,-1.8 z"
           id="path860"
           style="fill:#734f96;fill-opacity:1"
           sodipodi:nodetypes="ccccccccsccccccccccccccccccccccccccccccccc" />
        <path
           id="path862"
           style="fill:#734f96;fill-opacity:1"
           d="m 444.21875,68.044922 c -0.24844,0.0012 -0.46914,0.104297 -0.61914,0.404297 -0.3,0.7 0.49961,1.201562 1.09961,1.601562 1.1,0.6 1.9,1.398828 2.5,2.298828 1.1,1.7 1.40039,3.700782 1.40039,5.800782 0,4.2 -1.69883,7.60039 -2.79883,9.40039 -0.2,0.2 -0.60156,1 -0.60156,1 -0.1,-0.1 0.30156,-1.40039 0.60156,-2.40039 0.5,-1.6 1.79961,-6.5 0.0996,-11 -0.2,-0.5 -1.20117,-3.2 -3.20117,-4.5 -0.6,-0.4 -1.39922,-0.700391 -2.19922,-0.900391 -0.6,-0.1 -1.70039,-0.499609 -1.90039,0.400391 -0.2,0.8 0.70039,1.20039 1.40039,1.40039 3.2,1.1 4.59922,3.499219 5.19922,6.699219 0.6,3.5 -0.3,6.700781 -1,10.300781 -1.9,-2.5 -3.99883,-3.500781 -6.79883,-2.800781 -2.6,0.7 -4.10117,2.599219 -4.70117,5.199219 -1,3.8 -0.39844,7.5 1.10156,11.000001 0.8,2.1 2.49961,2.70078 4.59961,1.80078 4.1,-1.8 6.80039,-4.9 6.90039,-9.5 0,-2.5 0.79922,-4.499609 1.69922,-6.599609 0.4,-1 0.90078,-2 1.30078,-3 1.1,-2.9 1.99883,-5.800391 1.79883,-8.900391 -0.2,-3.3 -2.09961,-6.500781 -4.59961,-7.300781 -0.375,-0.125 -0.86719,-0.40625 -1.28125,-0.404297 z m -4.21484,20.740234 c 1.43435,-0.04324 2.65937,1.008985 2.79687,2.865235 0.2,2.4 -0.70078,4.60039 -2.30078,6.40039 -1,1.2 -2.29961,0.898438 -3.09961,-0.601562 -0.5,-1.3 -0.60078,-2.899219 -0.80078,-4.199219 -0.1,-1.6 0.30039,-2.799219 1.40039,-3.699219 0.65625,-0.5 1.35193,-0.745971 2.00391,-0.765625 z" />
      </g>
      <g
         id="g1160"
         transform="matrix(0.26458333,0,0,0.26458333,-23.229326,-43.315378)"
         style="stroke:#fac205;stroke-opacity:1">
        <path
           class="g"
           d="m 178.7,17.65 h 19.8"
           id="path868"
           style="stroke:#fac205;stroke-opacity:1" />
        <g
           id="g1158"
           style="stroke:#fac205;stroke-opacity:1">
          <path
             class="g"
             d="M 139.1,120.65 H 119.3"
             id="path870"
             style="stroke:#fac205;stroke-opacity:1" />
          <path
             class="g"
             d="m 139.1,120.65 9.9,17.2"
             id="path872"
             style="stroke:#fac205;stroke-opacity:1" />
          <path
             class="g"
             d="m 139.1,120.65 9.9,-17.2"
             id="path874"
             style="stroke:#fac205;stroke-opacity:1" />
          <path
             class="g"
             d="M 119.2,120.65 H 139"
             id="path876"
             style="stroke:#fac205;stroke-opacity:1" />
          <path
             class="g"
             d="m 119.2,120.65 -9.9,17.2"
             id="path878"
             style="stroke:#fac205;stroke-opacity:1" />
          <path
             class="g"
             d="m 119.2,120.65 -9.9,-17.2"
             id="path880"
             style="stroke:#fac205;stroke-opacity:1" />
          <path
             class="g"
             d="m 109.3,137.85 9.9,-17.2"
             id="path882"
             style="stroke:#fac205;stroke-opacity:1" />
          <path
             class="g"
             d="m 109.3,137.85 9.9,17.2"
             id="path884"
             style="stroke:#fac205;stroke-opacity:1" />
          <path
             class="g"
             d="m 119.2,154.95 -9.9,-17.2"
             id="path886"
             style="stroke:#fac205;stroke-opacity:1" />
          <path
             class="g"
             d="M 119.2,154.95 H 139"
             id="path888"
             style="stroke:#fac205;stroke-opacity:1" />
          <path
             class="g"
             d="M 139.1,154.95 H 119.3"
             id="path890"
             style="stroke:#fac205;stroke-opacity:1" />
          <path
             class="g"
             d="m 139.1,154.95 9.9,-17.2"
             id="path892"
             style="stroke:#fac205;stroke-opacity:1" />
          <path
             class="g"
             d="m 139.1,154.95 9.9,17.2"
             id="path894"
             style="stroke:#fac205;stroke-opacity:1" />
          <path
             class="g"
             d="m 149,137.85 -9.9,-17.2"
             id="path896"
             style="stroke:#fac205;stroke-opacity:1" />
          <path
             class="g"
             d="m 149,137.85 -9.9,17.2"
             id="path898"
             style="stroke:#fac205;stroke-opacity:1" />
          <path
             class="g"
             d="m 149,137.85 h 19.8"
             id="path900"
             style="stroke:#fac205;stroke-opacity:1" />
          <path
             class="g"
             d="M 139.1,86.35 H 119.3"
             id="path902"
             style="stroke:#fac205;stroke-opacity:1" />
          <path
             class="g"
             d="m 139.1,86.35 9.9,17.2"
             id="path904"
             style="stroke:#fac205;stroke-opacity:1" />
          <path
             class="g"
             d="M 139.1,86.35 149,69.15"
             id="path906"
             style="stroke:#fac205;stroke-opacity:1" />
          <path
             class="g"
             d="M 119.2,86.35 H 139"
             id="path908"
             style="stroke:#fac205;stroke-opacity:1" />
          <path
             class="g"
             d="m 119.2,86.35 -9.9,17.2"
             id="path910"
             style="stroke:#fac205;stroke-opacity:1" />
          <path
             class="g"
             d="m 119.2,86.35 -9.9,-17.2"
             id="path912"
             style="stroke:#fac205;stroke-opacity:1" />
          <path
             class="g"
             d="m 109.3,103.45 9.9,17.2"
             id="path914"
             style="stroke:#fac205;stroke-opacity:1" />
          <path
             class="g"
             d="m 109.3,103.45 9.9,-17.2"
             id="path916"
             style="stroke:#fac205;stroke-opacity:1" />
          <path
             class="g"
             d="m 149,103.45 -9.9,17.2"
             id="path918"
             style="stroke:#fac205;stroke-opacity:1" />
          <path
             class="g"
             d="m 149,103.45 -9.9,-17.2"
             id="path920"
             style="stroke:#fac205;stroke-opacity:1" />
          <path
             class="g"
             d="m 149,103.45 h 19.8"
             id="path922"
             style="stroke:#fac205;stroke-opacity:1" />
          <path
             class="g"
             d="M 139.1,51.95 H 119.3"
             id="path924"
             style="stroke:#fac205;stroke-opacity:1" />
          <path
             class="g"
             d="m 139.1,51.95 9.9,17.2"
             id="path926"
             style="stroke:#fac205;stroke-opacity:1" />
          <path
             class="g"
             d="M 139.1,51.95 149,34.75"
             id="path928"
             style="stroke:#fac205;stroke-opacity:1" />
          <path
             class="g"
             d="M 119.2,51.95 H 139"
             id="path930"
             style="stroke:#fac205;stroke-opacity:1" />
          <path
             class="g"
             d="m 119.2,51.95 -9.9,17.2"
             id="path932"
             style="stroke:#fac205;stroke-opacity:1" />
          <path
             class="g"
             d="m 109.3,69.15 9.9,17.2"
             id="path934"
             style="stroke:#fac205;stroke-opacity:1" />
          <path
             class="g"
             d="m 109.3,69.15 9.9,-17.2"
             id="path936"
             style="stroke:#fac205;stroke-opacity:1" />
          <path
             class="g"
             d="m 149,69.15 -9.9,17.2"
             id="path938"
             style="stroke:#fac205;stroke-opacity:1" />
          <path
             class="g"
             d="m 149,69.15 -9.9,-17.2"
             id="path940"
             style="stroke:#fac205;stroke-opacity:1" />
          <path
             class="g"
             d="m 149,69.15 h 19.8"
             id="path942"
             style="stroke:#fac205;stroke-opacity:1" />
          <path
             class="g"
             d="M 168.8,137.85 H 149"
             id="path944"
             style="stroke:#fac205;stroke-opacity:1" />
          <path
             class="g"
             d="m 168.8,137.85 9.9,17.2"
             id="path946"
             style="stroke:#fac205;stroke-opacity:1" />
          <path
             class="g"
             d="m 168.8,137.85 9.9,-17.2"
             id="path948"
             style="stroke:#fac205;stroke-opacity:1" />
          <path
             class="g"
             d="m 149,172.15 -9.9,-17.2"
             id="path950"
             style="stroke:#fac205;stroke-opacity:1" />
          <path
             class="g"
             d="m 149,172.15 h 19.8"
             id="path952"
             style="stroke:#fac205;stroke-opacity:1" />
          <path
             class="g"
             d="M 168.8,172.15 H 149"
             id="path954"
             style="stroke:#fac205;stroke-opacity:1" />
          <path
             class="g"
             d="m 168.8,172.15 9.9,-17.2"
             id="path956"
             style="stroke:#fac205;stroke-opacity:1" />
          <path
             class="g"
             d="m 168.8,172.15 9.9,17.2"
             id="path958"
             style="stroke:#fac205;stroke-opacity:1" />
          <path
             class="g"
             d="m 178.7,154.95 -9.9,-17.2"
             id="path960"
             style="stroke:#fac205;stroke-opacity:1" />
          <path
             class="g"
             d="m 178.7,154.95 -9.9,17.2"
             id="path962"
             style="stroke:#fac205;stroke-opacity:1" />
          <path
             class="g"
             d="m 178.7,154.95 h 19.8"
             id="path964"
             style="stroke:#fac205;stroke-opacity:1" />
          <path
             class="g"
             d="M 168.8,103.45 H 149"
             id="path966"
             style="stroke:#fac205;stroke-opacity:1" />
          <path
             class="g"
             d="m 168.8,103.45 9.9,17.2"
             id="path968"
             style="stroke:#fac205;stroke-opacity:1" />
          <path
             class="g"
             d="m 168.8,103.45 9.9,-17.2"
             id="path970"
             style="stroke:#fac205;stroke-opacity:1" />
          <path
             class="g"
             d="m 178.7,120.65 -9.9,17.2"
             id="path972"
             style="stroke:#fac205;stroke-opacity:1" />
          <path
             class="g"
             d="m 178.7,120.65 -9.9,-17.2"
             id="path974"
             style="stroke:#fac205;stroke-opacity:1" />
          <path
             class="g"
             d="m 178.7,120.65 h 19.8"
             id="path976"
             style="stroke:#fac205;stroke-opacity:1" />
          <path
             class="g"
             d="M 168.8,69.15 H 149"
             id="path978"
             style="stroke:#fac205;stroke-opacity:1" />
          <path
             class="g"
             d="m 168.8,69.15 9.9,17.2"
             id="path980"
             style="stroke:#fac205;stroke-opacity:1" />
          <path
             class="g"
             d="m 168.8,69.15 9.9,-17.2"
             id="path982"
             style="stroke:#fac205;stroke-opacity:1" />
          <path
             class="g"
             d="m 178.7,86.35 -9.9,17.2"
             id="path984"
             style="stroke:#fac205;stroke-opacity:1" />
          <path
             class="g"
             d="m 178.7,86.35 -9.9,-17.2"
             id="path986"
             style="stroke:#fac205;stroke-opacity:1" />
          <path
             class="g"
             d="m 178.7,86.35 h 19.8"
             id="path988"
             style="stroke:#fac205;stroke-opacity:1" />
          <path
             class="g"
             d="M 168.8,34.85 H 149"
             id="path990"
             style="stroke:#fac205;stroke-opacity:1" />
          <path
             class="g"
             d="m 168.8,34.85 9.9,17.2"
             id="path992"
             style="stroke:#fac205;stroke-opacity:1" />
          <path
             class="g"
             d="m 168.8,34.85 9.9,-17.2"
             id="path994"
             style="stroke:#fac205;stroke-opacity:1" />
          <path
             class="g"
             d="m 149,34.85 -9.9,17.2"
             id="path996"
             style="stroke:#fac205;stroke-opacity:1" />
          <path
             class="g"
             d="m 149,34.85 h 19.8"
             id="path998"
             style="stroke:#fac205;stroke-opacity:1" />
          <path
             class="g"
             d="m 178.7,51.95 -9.9,17.2"
             id="path1000"
             style="stroke:#fac205;stroke-opacity:1" />
          <path
             class="g"
             d="m 178.7,51.95 -9.9,-17.2"
             id="path1002"
             style="stroke:#fac205;stroke-opacity:1" />
          <path
             class="g"
             d="m 178.7,51.95 h 19.8"
             id="path1004"
             style="stroke:#fac205;stroke-opacity:1" />
          <path
             class="g"
             d="M 198.5,154.95 H 178.7"
             id="path1006"
             style="stroke:#fac205;stroke-opacity:1" />
          <path
             class="g"
             d="m 198.5,154.95 9.9,17.2"
             id="path1008"
             style="stroke:#fac205;stroke-opacity:1" />
          <path
             class="g"
             d="m 198.5,154.95 9.9,-17.2"
             id="path1010"
             style="stroke:#fac205;stroke-opacity:1" />
          <path
             class="g"
             d="m 178.7,189.25 -9.9,-17.2"
             id="path1012"
             style="stroke:#fac205;stroke-opacity:1" />
          <path
             class="h"
             d="m 178.7,189.25 h 19.8"
             id="path1014"
             style="stroke:#fac205;stroke-opacity:1" />
          <path
             class="h"
             d="M 198.5,189.25 H 178.7"
             id="path1016"
             style="stroke:#fac205;stroke-opacity:1" />
          <path
             class="g"
             d="m 198.5,189.25 9.9,-17.2"
             id="path1018"
             style="stroke:#fac205;stroke-opacity:1" />
          <path
             class="g"
             d="m 208.4,172.15 -9.9,-17.2"
             id="path1020"
             style="stroke:#fac205;stroke-opacity:1" />
          <path
             class="g"
             d="m 208.4,172.15 -9.9,17.2"
             id="path1022"
             style="stroke:#fac205;stroke-opacity:1" />
          <path
             class="g"
             d="m 208.4,172.15 h 19.8"
             id="path1024"
             style="stroke:#fac205;stroke-opacity:1" />
          <path
             class="g"
             d="M 198.5,120.65 H 178.7"
             id="path1026"
             style="stroke:#fac205;stroke-opacity:1" />
          <path
             class="g"
             d="m 198.5,120.65 9.9,17.2"
             id="path1028"
             style="stroke:#fac205;stroke-opacity:1" />
          <path
             class="g"
             d="m 198.5,120.65 9.9,-17.2"
             id="path1030"
             style="stroke:#fac205;stroke-opacity:1" />
          <path
             class="g"
             d="m 208.4,137.85 -9.9,17.2"
             id="path1032"
             style="stroke:#fac205;stroke-opacity:1" />
          <path
             class="g"
             d="m 208.4,137.85 -9.9,-17.2"
             id="path1034"
             style="stroke:#fac205;stroke-opacity:1" />
          <path
             class="g"
             d="m 208.4,137.85 h 19.8"
             id="path1036"
             style="stroke:#fac205;stroke-opacity:1" />
          <path
             class="g"
             d="M 198.5,86.35 H 178.7"
             id="path1038"
             style="stroke:#fac205;stroke-opacity:1" />
          <path
             class="g"
             d="m 198.5,86.35 9.9,17.2"
             id="path1040"
             style="stroke:#fac205;stroke-opacity:1" />
          <path
             class="g"
             d="m 198.5,86.35 9.9,-17.2"
             id="path1042"
             style="stroke:#fac205;stroke-opacity:1" />
          <path
             class="g"
             d="m 208.4,103.45 -9.9,17.2"
             id="path1044"
             style="stroke:#fac205;stroke-opacity:1" />
          <path
             class="g"
             d="m 208.4,103.45 -9.9,-17.2"
             id="path1046"
             style="stroke:#fac205;stroke-opacity:1" />
          <path
             class="g"
             d="m 208.4,103.45 h 19.8"
             id="path1048"
             style="stroke:#fac205;stroke-opacity:1" />
          <path
             class="g"
             d="M 198.5,51.95 H 178.7"
             id="path1050"
             style="stroke:#fac205;stroke-opacity:1" />
          <path
             class="g"
             d="m 198.5,51.95 9.9,17.2"
             id="path1052"
             style="stroke:#fac205;stroke-opacity:1" />
          <path
             class="g"
             d="m 198.5,51.95 9.9,-17.2"
             id="path1054"
             style="stroke:#fac205;stroke-opacity:1" />
          <path
             class="g"
             d="m 208.4,69.15 -9.9,17.2"
             id="path1056"
             style="stroke:#fac205;stroke-opacity:1" />
          <path
             class="g"
             d="m 208.4,69.15 -9.9,-17.2"
             id="path1058"
             style="stroke:#fac205;stroke-opacity:1" />
          <path
             class="g"
             d="m 208.4,69.15 h 19.8"
             id="path1060"
             style="stroke:#fac205;stroke-opacity:1" />
          <path
             class="g"
             d="m 198.5,17.65 9.9,17.2"
             id="path1062"
             style="stroke:#fac205;stroke-opacity:1" />
          <path
             class="g"
             d="m 178.7,17.65 -9.9,17.2"
             id="path1064"
             style="stroke:#fac205;stroke-opacity:1" />
          <path
             class="g"
             d="m 208.4,34.85 -9.9,17.2"
             id="path1066"
             style="stroke:#fac205;stroke-opacity:1" />
          <path
             class="g"
             d="m 208.4,34.85 -9.9,-17.2"
             id="path1068"
             style="stroke:#fac205;stroke-opacity:1" />
          <path
             class="g"
             d="m 208.4,34.85 h 19.8"
             id="path1070"
             style="stroke:#fac205;stroke-opacity:1" />
          <path
             class="g"
             d="M 228.2,137.85 H 208.4"
             id="path1072"
             style="stroke:#fac205;stroke-opacity:1" />
          <path
             class="g"
             d="m 228.2,137.85 9.9,17.2"
             id="path1074"
             style="stroke:#fac205;stroke-opacity:1" />
          <path
             class="g"
             d="m 228.2,137.85 9.9,-17.2"
             id="path1076"
             style="stroke:#fac205;stroke-opacity:1" />
          <path
             class="g"
             d="M 228.2,172.15 H 208.4"
             id="path1078"
             style="stroke:#fac205;stroke-opacity:1" />
          <path
             class="g"
             d="m 228.2,172.15 9.9,-17.2"
             id="path1080"
             style="stroke:#fac205;stroke-opacity:1" />
          <path
             class="g"
             d="m 238.2,154.95 -9.9,-17.2"
             id="path1082"
             style="stroke:#fac205;stroke-opacity:1" />
          <path
             class="g"
             d="m 238.2,154.95 -9.9,17.2"
             id="path1084"
             style="stroke:#fac205;stroke-opacity:1" />
          <path
             class="g"
             d="M 238.2,154.95 H 258"
             id="path1086"
             style="stroke:#fac205;stroke-opacity:1" />
          <path
             class="g"
             d="M 228.2,103.45 H 208.4"
             id="path1088"
             style="stroke:#fac205;stroke-opacity:1" />
          <path
             class="g"
             d="m 228.2,103.45 9.9,17.2"
             id="path1090"
             style="stroke:#fac205;stroke-opacity:1" />
          <path
             class="g"
             d="m 228.2,103.45 9.9,-17.2"
             id="path1092"
             style="stroke:#fac205;stroke-opacity:1" />
          <path
             class="g"
             d="m 238.2,120.65 -9.9,17.2"
             id="path1094"
             style="stroke:#fac205;stroke-opacity:1" />
          <path
             class="g"
             d="m 238.2,120.65 -9.9,-17.2"
             id="path1096"
             style="stroke:#fac205;stroke-opacity:1" />
          <path
             class="g"
             d="M 238.2,120.65 H 258"
             id="path1098"
             style="stroke:#fac205;stroke-opacity:1" />
          <path
             class="g"
             d="M 228.2,69.15 H 208.4"
             id="path1100"
             style="stroke:#fac205;stroke-opacity:1" />
          <path
             class="g"
             d="m 228.2,69.15 9.9,17.2"
             id="path1102"
             style="stroke:#fac205;stroke-opacity:1" />
          <path
             class="g"
             d="m 228.2,69.15 9.9,-17.2"
             id="path1104"
             style="stroke:#fac205;stroke-opacity:1" />
          <path
             class="g"
             d="m 238.2,86.35 -9.9,17.2"
             id="path1106"
             style="stroke:#fac205;stroke-opacity:1" />
          <path
             class="g"
             d="m 238.2,86.35 -9.9,-17.2"
             id="path1108"
             style="stroke:#fac205;stroke-opacity:1" />
          <path
             class="g"
             d="M 238.2,86.35 H 258"
             id="path1110"
             style="stroke:#fac205;stroke-opacity:1" />
          <path
             class="g"
             d="M 228.2,34.85 H 208.4"
             id="path1112"
             style="stroke:#fac205;stroke-opacity:1" />
          <path
             class="g"
             d="m 228.2,34.85 9.9,17.2"
             id="path1114"
             style="stroke:#fac205;stroke-opacity:1" />
          <path
             class="g"
             d="m 238.2,51.95 -9.9,17.2"
             id="path1116"
             style="stroke:#fac205;stroke-opacity:1" />
          <path
             class="g"
             d="m 238.2,51.95 -9.9,-17.2"
             id="path1118"
             style="stroke:#fac205;stroke-opacity:1" />
          <path
             class="g"
             d="M 238.2,51.95 H 258"
             id="path1120"
             style="stroke:#fac205;stroke-opacity:1" />
          <path
             class="g"
             d="M 258,120.65 H 238.2"
             id="path1122"
             style="stroke:#fac205;stroke-opacity:1" />
          <path
             class="g"
             d="m 258,120.65 9.9,17.2"
             id="path1124"
             style="stroke:#fac205;stroke-opacity:1" />
          <path
             class="g"
             d="m 258,120.65 9.9,-17.2"
             id="path1126"
             style="stroke:#fac205;stroke-opacity:1" />
          <path
             class="g"
             d="M 258,154.95 H 238.2"
             id="path1128"
             style="stroke:#fac205;stroke-opacity:1" />
          <path
             class="g"
             d="m 258,154.95 9.9,-17.2"
             id="path1130"
             style="stroke:#fac205;stroke-opacity:1" />
          <path
             class="g"
             d="M 267.9,137.85 258,120.65"
             id="path1132"
             style="stroke:#fac205;stroke-opacity:1" />
          <path
             class="g"
             d="m 267.9,137.85 -9.9,17.2"
             id="path1134"
             style="stroke:#fac205;stroke-opacity:1" />
          <path
             class="g"
             d="M 258,86.35 H 238.2"
             id="path1136"
             style="stroke:#fac205;stroke-opacity:1" />
          <path
             class="g"
             d="m 258,86.35 9.9,17.2"
             id="path1138"
             style="stroke:#fac205;stroke-opacity:1" />
          <path
             class="g"
             d="m 258,86.35 9.9,-17.2"
             id="path1140"
             style="stroke:#fac205;stroke-opacity:1" />
          <path
             class="g"
             d="m 267.9,103.45 -9.9,17.2"
             id="path1142"
             style="stroke:#fac205;stroke-opacity:1" />
          <path
             class="g"
             d="M 267.9,103.45 258,86.25"
             id="path1144"
             style="stroke:#fac205;stroke-opacity:1" />
          <g
             id="b"
             style="stroke:#fac205;stroke-opacity:1">
            <path
               class="g"
               d="M 258,51.95 H 238.2"
               id="path1146"
               style="stroke:#fac205;stroke-opacity:1" />
          </g>
          <g
             id="c"
             style="stroke:#fac205;stroke-opacity:1">
            <path
               class="g"
               d="m 258,51.95 9.9,17.2"
               id="path1149"
               style="stroke:#fac205;stroke-opacity:1" />
          </g>
          <g
             id="d"
             style="stroke:#fac205;stroke-opacity:1">
            <path
               class="g"
               d="M 267.9,69.15 258,86.35"
               id="path1152"
               style="stroke:#fac205;stroke-opacity:1" />
          </g>
          <g
             id="e"
             style="stroke:#fac205;stroke-opacity:1">
            <path
               class="g"
               d="M 267.9,69.15 258,51.95"
               id="path1155"
               style="stroke:#fac205;stroke-opacity:1" />
          </g>
        </g>
      </g>
    </g>
  </g>
</svg>
