<?xml version="1.0" encoding="utf-8"?>
<!-- Generator: Adobe Illustrator 26.1.0, SVG Export Plug-In . SVG Version: 6.00 Build 0)  -->
<svg version="1.1" id="Livello_1" xmlns="http://www.w3.org/2000/svg" xmlns:xlink="http://www.w3.org/1999/xlink" x="0px" y="0px"
	 viewBox="0 0 760.6 371.7" style="enable-background:new 0 0 760.6 371.7;" xml:space="preserve">
<style type="text/css">
	.st0{fill:#FFFFFF;}
	.st1{fill:#F5D003;}
	.st2{fill:#1D1D1B;}
	.st3{fill:#F5D000;}
	.st4{fill:none;stroke:#F5D000;stroke-width:2.8378;stroke-linecap:round;stroke-linejoin:round;}
	.st5{fill:none;stroke:#F5D000;stroke-width:2.8378;stroke-linecap:square;stroke-linejoin:round;}
</style>
<rect class="st0" width="760.6" height="371.7"/>
<g>
	<path class="st1" d="M86.2,204.8v-26.2H55.3v26.2h-6.6v-56h6.6V175h30.9v-26.2h6.6v56H86.2z"/>
	<path class="st1" d="M324.8,204.8l-38.6-47v47h-3.7v-56h4.8l38.6,47v-47h3.7v56H324.8z"/>
	<path class="st1" d="M347.6,204.8v-56h38.1v3.7h-31.5V175h25.4v3.7h-25.4v22.5h33.4v3.7H347.6z"/>
	<path class="st2" d="M478.6,152.5v52.3H472v-52.3h-18.7v-3.7h44v3.7H478.6z"/>
	<path class="st2" d="M527.8,205.6c-16.2,0-25-11.8-25-28.8c0-17,8.8-28.8,25-28.8c16.2,0,25,11.8,25,28.8
		C552.7,193.8,543.9,205.6,527.8,205.6z M527.8,151.7c-12.6,0-17.2,11.1-17.2,25.1c0,14,4.6,25.1,17.2,25.1
		c12.5,0,17.1-11.1,17.1-25.1C544.9,162.8,540.2,151.7,527.8,151.7z"/>
	<path class="st2" d="M589.3,205.6c-16.2,0-25-11.8-25-28.8c0-17,8.8-28.8,25-28.8c16.2,0,25,11.8,25,28.8
		C614.2,193.8,605.4,205.6,589.3,205.6z M589.3,151.7c-12.6,0-17.2,11.1-17.2,25.1c0,14,4.6,25.1,17.2,25.1
		c12.5,0,17.1-11.1,17.1-25.1C606.4,162.8,601.8,151.7,589.3,151.7z"/>
	<path class="st2" d="M629,204.8v-56h6.6v52.3H661v3.7H629z"/>
	<path class="st2" d="M690.3,206.1c-7.5,0-14.7-2.4-21-6.4v-3.2c6.2,4,13.6,5.9,21,5.9c7.7,0,14.8-4.9,14.8-12.2
		c0-7.1-8.1-10.2-15.7-11.8c-9.5-2-19.3-6.6-19.3-15.6c0-9.4,9.8-15.3,20.2-15.3c6.5,0,12.8,2.4,17.9,6.4v3.2
		c-5.1-4-11.4-5.9-17.9-5.9c-7,0-13.8,3.6-13.8,9.9c0,6.4,7.8,8.2,14.6,9.6c10.3,2.2,20.3,8,20.3,17.8
		C711.4,199,701.4,206.1,690.3,206.1z"/>
</g>
<g>
	<g>
		<path d="M418.3,180.1c2.9-0.7,5.7,0.1,8.6,0.3c0.2,0.3,0.4,0.5,0.5,0.8c-0.1,0.2-0.2,0.3-0.4,0.3c-1.3,0.1-2.6-0.5-3.9-0.5
			c-0.8,0-1.7-0.2-2.4,0.4C419.5,181.6,419.1,180.4,418.3,180.1z"/>
		<path d="M428,181.2c-0.6,1.5,0.2,3.3-0.6,4.8c-0.2,0.1-0.3,0.1-0.5,0c-0.2-1.5-0.1-3.1,0-4.6c0-0.1,0.1-0.1,0.1-0.2
			C427.4,181.2,427.7,180.5,428,181.2z"/>
		<path class="st3" d="M408.5,186.9c4.8,1.2,8.4,2.8,10.1,4c1.1,0.7,2,1.8,2.1,1.9c2.6,2.3,1.4,3.1-0.7,5c-0.7,0.6-1.4,0.1-1.9-0.3
			c-3.3-3.1-7.3-5-11.9-5.6c-0.4-0.1-1.2-0.2-1.6-0.7c-0.6-0.8,0-2,0-2.2C405.7,187.1,408.3,186.9,408.5,186.9z"/>
		<path class="st3" d="M425.1,187.8c1,0.9,1.2,2.4,0.4,3.5c-0.2,0.3-0.4,0.6-0.7,0.8c-1.2,0.8-1.9,0-2.6-0.7c-2.4-2.4-5.2-4.1-8.5-5
			c-1.2-0.4-2.4-0.7-3.7-0.9c-0.7-0.1-1.4-0.4-0.9-1.4l2.1-1.5c0.3-0.2,0.5-0.3,0.8-0.4c2.1-0.6,4.1,0.4,6.5,1.5
			c2.2,1,4.2,2.2,6,3.7C424.7,187.5,424.9,187.6,425.1,187.8z"/>
		<path class="st3" d="M406.2,197.2L406.2,197.2l-0.8-0.4c-0.2-0.2-0.3-0.6-0.3-1c-0.2-2.5,0-2.6,2.4-2c2.9,0.6,5.3,2.1,7.4,4.1
			c0.7,0.7,1.3,1.4,1.3,2.5c-0.6,0.6-1.4,1.2-2.3,1.4c-0.3,0.2-0.7,0.2-1,0.1c-0.4-0.1-0.6-0.4-0.7-0.4
			C411.9,201,410.2,199.8,406.2,197.2z"/>
		<path class="st3" d="M426.9,187.5c-1-1.2-2.8-3-5.4-4.4c-2.2-1.2-4.3-1.8-5.7-2.1c0,0,0-0.1,0-0.1c0.1-0.5,2.7-0.5,3.5-0.5
			c1.7,0,4.2,0.2,7.7,1.1c0.3,0.9,0.7,2.3,0.4,4.1C427.3,186.4,427.1,187,426.9,187.5z"/>
		<path d="M428.5,181.2c1.8,2,1.9,4.3,1.3,6.8c-1.3,5.6-4.6,9.9-8.8,13.5c-5.7,4.9-12.2,8.8-17.9,13.8c-2.2,1.9-4.4,3.7-6.9,5.3
			c1.4-2,2.7-4,4.1-5.9c3-3.9,3.6-8,1.9-12.8c-3.2-9.1,0.9-19,9.4-23.3c1-0.5,2-0.8,3.1-1.2c1.1-0.4,2.2-0.2,3.7-0.4
			c-1.7-0.7-3.1-1.2-4.4-1.8c-7.1-3.2-13.1-7.7-17-14.6c-1-1.8-1.8-3.8-2.1-5.8c-0.8-6.4,3.1-11,9.7-11.6c9.4-0.9,17.4,4,21.5,13.2
			c3,6.7,4.1,13.8,3.4,21.1c-0.6-0.2-0.5-0.7-0.5-1.1c-0.4-4.7-2.2-9-4.2-13.1c-3.3-6.9-8.7-11.4-16.4-12.8
			c-2.9-0.5-5.7,0.1-7.4,2.8c-1.7,2.6-1.5,5.5-0.1,8.2c2,3.8,5.3,6.4,9,8.4c3.3,1.8,6.9,3.4,10.3,5.1
			C423,176,426.9,178.6,428.5,181.2c-1.2,0.7-4.1-0.6-5.3-0.8c-1.5-0.2-3.1-0.3-4.6,0c-2.2,0.3-4.5,0.6-6.4,1.8
			c-0.9,0.7-1.9,1.3-2.9,2c-0.3,0.3-0.6,0.5-0.9,0.9c-0.8,0.9-1.4,1.9-1.9,3c-0.2,0.4-0.3,0.9-0.4,1.3c-1,2.7-1.1,5.5-0.7,8.4
			c0.1,0.2,0.1,0.5,0.2,0.8c1,4.2,3.3,5.4,7.2,3.7c0.4-0.2,0.7-0.3,1.1-0.5c1-0.4,1.9-1,2.8-1.6c2.4-1.8,4.5-3.9,6.5-6.1
			c0.5-0.7,1.1-1.4,1.6-2c0.5-0.8,1-1.6,1.4-2.5c0.5-1.2,1.1-2.4,1.3-3.8c0.2-0.9,0.1-1.9,0.2-2.8
			C427.7,182.2,427.5,181.4,428.5,181.2z"/>
		<path d="M445.8,165.9c1.1-1.8,2.8-5.2,2.8-9.4c0-2.1-0.3-4.1-1.4-5.8c-0.6-0.9-1.4-1.7-2.5-2.3c-0.6-0.4-1.4-0.9-1.1-1.6
			c0.4-0.8,1.3-0.2,1.9,0c2.5,0.8,4.4,4,4.6,7.3c0.2,3.1-0.7,6-1.8,8.9c-0.4,1-0.9,2-1.3,3c-0.9,2.1-1.7,4.1-1.7,6.6
			c-0.1,4.6-2.8,7.7-6.9,9.5c-2.1,0.9-3.8,0.3-4.6-1.8c-1.5-3.5-2.1-7.2-1.1-11c0.6-2.6,2.1-4.5,4.7-5.2c2.8-0.7,4.9,0.3,6.8,2.8
			c0.7-3.6,1.6-6.8,1-10.3c-0.6-3.2-2-5.6-5.2-6.7c-0.7-0.2-1.6-0.6-1.4-1.4c0.2-0.9,1.3-0.5,1.9-0.4c0.8,0.2,1.6,0.5,2.2,0.9
			c2,1.3,3,4,3.2,4.5c1.7,4.5,0.4,9.4-0.1,11c-0.3,1-0.7,2.3-0.6,2.4C445.2,166.9,445.6,166.1,445.8,165.9z"/>
		<path class="st0" d="M436.6,171.6c-0.1-1.6,0.3-2.8,1.4-3.7c2.1-1.6,4.6-0.6,4.8,2.1c0.2,2.4-0.7,4.6-2.3,6.4
			c-1,1.2-2.3,0.9-3.1-0.6C436.9,174.5,436.8,172.9,436.6,171.6z"/>
		<path class="st3" d="M394.5,183.9"/>
		<path d="M434.1,157.3"/>
	</g>
</g>
<g>
	<path class="st4" d="M178.7,95.9h19.8"/>
	<g>
		<path class="st4" d="M139.1,198.9h-19.8"/>
		<path class="st4" d="M139.1,198.9l9.9,17.2"/>
		<path class="st4" d="M139.1,198.9l9.9-17.2"/>
		<path class="st4" d="M119.2,198.9h19.8"/>
		<path class="st4" d="M119.2,198.9l-9.9,17.2"/>
		<path class="st4" d="M119.2,198.9l-9.9-17.2"/>
		<path class="st4" d="M109.3,216.1l9.9-17.2"/>
		<path class="st4" d="M109.3,216.1l9.9,17.2"/>
		<path class="st4" d="M119.2,233.2l-9.9-17.2"/>
		<path class="st4" d="M119.2,233.2h19.8"/>
		<path class="st4" d="M139.1,233.2h-19.8"/>
		<path class="st4" d="M139.1,233.2l9.9-17.2"/>
		<path class="st4" d="M139.1,233.2l9.9,17.2"/>
		<path class="st4" d="M149,216.1l-9.9-17.2"/>
		<path class="st4" d="M149,216.1l-9.9,17.2"/>
		<path class="st4" d="M149,216.1h19.8"/>
		<path class="st4" d="M139.1,164.6h-19.8"/>
		<path class="st4" d="M139.1,164.6l9.9,17.2"/>
		<path class="st4" d="M139.1,164.6l9.9-17.2"/>
		<path class="st4" d="M119.2,164.6h19.8"/>
		<path class="st4" d="M119.2,164.6l-9.9,17.2"/>
		<path class="st4" d="M119.2,164.6l-9.9-17.2"/>
		<path class="st4" d="M109.3,181.7l9.9,17.2"/>
		<path class="st4" d="M109.3,181.7l9.9-17.2"/>
		<path class="st4" d="M149,181.7l-9.9,17.2"/>
		<path class="st4" d="M149,181.7l-9.9-17.2"/>
		<path class="st4" d="M149,181.7h19.8"/>
		<path class="st4" d="M139.1,130.2h-19.8"/>
		<path class="st4" d="M139.1,130.2l9.9,17.2"/>
		<path class="st4" d="M139.1,130.2l9.9-17.2"/>
		<path class="st4" d="M119.2,130.2h19.8"/>
		<path class="st4" d="M119.2,130.2l-9.9,17.2"/>
		<path class="st4" d="M109.3,147.4l9.9,17.2"/>
		<path class="st4" d="M109.3,147.4l9.9-17.2"/>
		<path class="st4" d="M149,147.4l-9.9,17.2"/>
		<path class="st4" d="M149,147.4l-9.9-17.2"/>
		<path class="st4" d="M149,147.4h19.8"/>
		<path class="st4" d="M168.8,216.1H149"/>
		<path class="st4" d="M168.8,216.1l9.9,17.2"/>
		<path class="st4" d="M168.8,216.1l9.9-17.2"/>
		<path class="st4" d="M149,250.4l-9.9-17.2"/>
		<path class="st4" d="M149,250.4h19.8"/>
		<path class="st4" d="M168.8,250.4H149"/>
		<path class="st4" d="M168.8,250.4l9.9-17.2"/>
		<path class="st4" d="M168.8,250.4l9.9,17.2"/>
		<path class="st4" d="M178.7,233.2l-9.9-17.2"/>
		<path class="st4" d="M178.7,233.2l-9.9,17.2"/>
		<path class="st4" d="M178.7,233.2h19.8"/>
		<path class="st4" d="M168.8,181.7H149"/>
		<path class="st4" d="M168.8,181.7l9.9,17.2"/>
		<path class="st4" d="M168.8,181.7l9.9-17.2"/>
		<path class="st4" d="M178.7,198.9l-9.9,17.2"/>
		<path class="st4" d="M178.7,198.9l-9.9-17.2"/>
		<path class="st4" d="M178.7,198.9h19.8"/>
		<path class="st4" d="M168.8,147.4H149"/>
		<path class="st4" d="M168.8,147.4l9.9,17.2"/>
		<path class="st4" d="M168.8,147.4l9.9-17.2"/>
		<path class="st4" d="M178.7,164.6l-9.9,17.2"/>
		<path class="st4" d="M178.7,164.6l-9.9-17.2"/>
		<path class="st4" d="M178.7,164.6h19.8"/>
		<path class="st4" d="M168.8,113.1H149"/>
		<path class="st4" d="M168.8,113.1l9.9,17.2"/>
		<path class="st4" d="M168.8,113.1l9.9-17.2"/>
		<path class="st4" d="M149,113.1l-9.9,17.2"/>
		<path class="st4" d="M149,113.1h19.8"/>
		<path class="st4" d="M178.7,130.2l-9.9,17.2"/>
		<path class="st4" d="M178.7,130.2l-9.9-17.2"/>
		<path class="st4" d="M178.7,130.2h19.8"/>
		<path class="st4" d="M198.5,233.2h-19.8"/>
		<path class="st4" d="M198.5,233.2l9.9,17.2"/>
		<path class="st4" d="M198.5,233.2l9.9-17.2"/>
		<path class="st4" d="M178.7,267.5l-9.9-17.2"/>
		<path class="st5" d="M178.7,267.5h19.8"/>
		<path class="st5" d="M198.5,267.5h-19.8"/>
		<path class="st4" d="M198.5,267.5l9.9-17.2"/>
		<path class="st4" d="M208.4,250.4l-9.9-17.2"/>
		<path class="st4" d="M208.4,250.4l-9.9,17.2"/>
		<path class="st4" d="M208.4,250.4h19.8"/>
		<path class="st4" d="M198.5,198.9h-19.8"/>
		<path class="st4" d="M198.5,198.9l9.9,17.2"/>
		<path class="st4" d="M198.5,198.9l9.9-17.2"/>
		<path class="st4" d="M208.4,216.1l-9.9,17.2"/>
		<path class="st4" d="M208.4,216.1l-9.9-17.2"/>
		<path class="st4" d="M208.4,216.1h19.8"/>
		<path class="st4" d="M198.5,164.6h-19.8"/>
		<path class="st4" d="M198.5,164.6l9.9,17.2"/>
		<path class="st4" d="M198.5,164.6l9.9-17.2"/>
		<path class="st4" d="M208.4,181.7l-9.9,17.2"/>
		<path class="st4" d="M208.4,181.7l-9.9-17.2"/>
		<path class="st4" d="M208.4,181.7h19.8"/>
		<path class="st4" d="M198.5,130.2h-19.8"/>
		<path class="st4" d="M198.5,130.2l9.9,17.2"/>
		<path class="st4" d="M198.5,130.2l9.9-17.2"/>
		<path class="st4" d="M208.4,147.4l-9.9,17.2"/>
		<path class="st4" d="M208.4,147.4l-9.9-17.2"/>
		<path class="st4" d="M208.4,147.4h19.8"/>
		<path class="st4" d="M198.5,95.9l9.9,17.2"/>
		<path class="st4" d="M178.7,95.9l-9.9,17.2"/>
		<path class="st4" d="M208.4,113.1l-9.9,17.2"/>
		<path class="st4" d="M208.4,113.1l-9.9-17.2"/>
		<path class="st4" d="M208.4,113.1h19.8"/>
		<path class="st4" d="M228.2,216.1h-19.8"/>
		<path class="st4" d="M228.2,216.1l9.9,17.2"/>
		<path class="st4" d="M228.2,216.1l9.9-17.2"/>
		<path class="st4" d="M228.2,250.4h-19.8"/>
		<path class="st4" d="M228.2,250.4l9.9-17.2"/>
		<path class="st4" d="M238.2,233.2l-9.9-17.2"/>
		<path class="st4" d="M238.2,233.2l-9.9,17.2"/>
		<path class="st4" d="M238.2,233.2H258"/>
		<path class="st4" d="M228.2,181.7h-19.8"/>
		<path class="st4" d="M228.2,181.7l9.9,17.2"/>
		<path class="st4" d="M228.2,181.7l9.9-17.2"/>
		<path class="st4" d="M238.2,198.9l-9.9,17.2"/>
		<path class="st4" d="M238.2,198.9l-9.9-17.2"/>
		<path class="st4" d="M238.2,198.9H258"/>
		<path class="st4" d="M228.2,147.4h-19.8"/>
		<path class="st4" d="M228.2,147.4l9.9,17.2"/>
		<path class="st4" d="M228.2,147.4l9.9-17.2"/>
		<path class="st4" d="M238.2,164.6l-9.9,17.2"/>
		<path class="st4" d="M238.2,164.6l-9.9-17.2"/>
		<path class="st4" d="M238.2,164.6H258"/>
		<path class="st4" d="M228.2,113.1h-19.8"/>
		<path class="st4" d="M228.2,113.1l9.9,17.2"/>
		<path class="st4" d="M238.2,130.2l-9.9,17.2"/>
		<path class="st4" d="M238.2,130.2l-9.9-17.2"/>
		<path class="st4" d="M238.2,130.2H258"/>
		<path class="st4" d="M258,198.9h-19.8"/>
		<path class="st4" d="M258,198.9l9.9,17.2"/>
		<path class="st4" d="M258,198.9l9.9-17.2"/>
		<path class="st4" d="M258,233.2h-19.8"/>
		<path class="st4" d="M258,233.2l9.9-17.2"/>
		<path class="st4" d="M267.9,216.1l-9.9-17.2"/>
		<path class="st4" d="M267.9,216.1l-9.9,17.2"/>
		<path class="st4" d="M258,164.6h-19.8"/>
		<path class="st4" d="M258,164.6l9.9,17.2"/>
		<path class="st4" d="M258,164.6l9.9-17.2"/>
		<path class="st4" d="M267.9,181.7l-9.9,17.2"/>
		<path class="st4" d="M267.9,181.7l-9.9-17.2"/>
		<g id="line2d_141_00000143618123941581430390000012439072567851464611_">
			<g>
				<path class="st4" d="M258,130.2h-19.8"/>
			</g>
		</g>
		<g id="line2d_142_00000078046356058701785700000014752315176651323051_">
			<g>
				<path class="st4" d="M258,130.2l9.9,17.2"/>
			</g>
		</g>
		<g id="line2d_143_00000086678440991883307330000011411802709201183884_">
			<g>
				<path class="st4" d="M267.9,147.4l-9.9,17.2"/>
			</g>
		</g>
		<g id="line2d_144_00000036958081119331835600000004413570599065766325_">
			<g>
				<path class="st4" d="M267.9,147.4l-9.9-17.2"/>
			</g>
		</g>
	</g>
</g>
</svg>
