<?xml version="1.0" encoding="UTF-8"?><svg id="a" xmlns="http://www.w3.org/2000/svg" viewBox="0 0 760.6 207"><defs><style>.f{fill:#fff;}.g{stroke-linecap:round;}.g,.h{fill:none;stroke:#f5d000;stroke-linejoin:round;stroke-width:2.84px;}.i{fill:#f5d003;}.j{fill:#f5d000;}.h{stroke-linecap:square;}.k{fill:#1d1d1b;}</style></defs><rect class="f" width="760.6" height="207"/><g><path class="i" d="M86.2,131.5v-26.2h-30.9v26.2h-6.6v-56h6.6v26.2h30.9v-26.2h6.6v56h-6.6Z"/><path class="i" d="M324.8,131.5l-38.6-47v47h-3.7v-56h4.8l38.6,47v-47h3.7v56h-4.8Z"/><path class="i" d="M347.6,131.5v-56h38.1v3.7h-31.5v22.5h25.4v3.7h-25.4v22.5h33.4v3.7h-40v-.1Z"/><path class="k" d="M478.6,79.2v52.3h-6.6v-52.3h-18.7v-3.7h44v3.7h-18.7Z"/><path class="k" d="M527.8,132.3c-16.2,0-25-11.8-25-28.8s8.8-28.8,25-28.8,25,11.8,25,28.8c-.1,17-8.9,28.8-25,28.8Zm0-53.9c-12.6,0-17.2,11.1-17.2,25.1s4.6,25.1,17.2,25.1,17.1-11.1,17.1-25.1c0-14-4.7-25.1-17.1-25.1Z"/><path class="k" d="M589.3,132.3c-16.2,0-25-11.8-25-28.8s8.8-28.8,25-28.8,25,11.8,25,28.8c-.1,17-8.9,28.8-25,28.8Zm0-53.9c-12.6,0-17.2,11.1-17.2,25.1s4.6,25.1,17.2,25.1,17.1-11.1,17.1-25.1c0-14-4.6-25.1-17.1-25.1Z"/><path class="k" d="M629,131.5v-56h6.6v52.3h25.4v3.7h-32Z"/><path class="k" d="M690.3,132.8c-7.5,0-14.7-2.4-21-6.4v-3.2c6.2,4,13.6,5.9,21,5.9s14.8-4.9,14.8-12.2-8.1-10.2-15.7-11.8c-9.5-2-19.3-6.6-19.3-15.6s9.8-15.3,20.2-15.3c6.5,0,12.8,2.4,17.9,6.4v3.2c-5.1-4-11.4-5.9-17.9-5.9-7,0-13.8,3.6-13.8,9.9s7.8,8.2,14.6,9.6c10.3,2.2,20.3,8,20.3,17.8,0,10.5-10,17.6-21.1,17.6Z"/></g><g><path d="M418.3,101.75c2.9-.7,5.7,.1,8.6,.3,.2,.3,.4,.5,.5,.8-.1,.2-.2,.3-.4,.3-1.3,.1-2.6-.5-3.9-.5-.8,0-1.7-.2-2.4,.4-1.2,.2-1.6-1-2.4-1.3Z"/><path d="M428,102.85c-.6,1.5,.2,3.3-.6,4.8-.2,.1-.3,.1-.5,0-.2-1.5-.1-3.1,0-4.6,0-.1,.1-.1,.1-.2,.4,0,.7-.7,1,0Z"/><path class="j" d="M408.5,108.55c4.8,1.2,8.4,2.8,10.1,4,1.1,.7,2,1.8,2.1,1.9,2.6,2.3,1.4,3.1-.7,5-.7,.6-1.4,.1-1.9-.3-3.3-3.1-7.3-5-11.9-5.6-.4-.1-1.2-.2-1.6-.7-.6-.8,0-2,0-2.2,1.1-1.9,3.7-2.1,3.9-2.1Z"/><path class="j" d="M425.1,109.45c1,.9,1.2,2.4,.4,3.5-.2,.3-.4,.6-.7,.8-1.2,.8-1.9,0-2.6-.7-2.4-2.4-5.2-4.1-8.5-5-1.2-.4-2.4-.7-3.7-.9-.7-.1-1.4-.4-.9-1.4l2.1-1.5c.3-.2,.5-.3,.8-.4,2.1-.6,4.1,.4,6.5,1.5,2.2,1,4.2,2.2,6,3.7,.2,.1,.4,.2,.6,.4Z"/><path class="j" d="M406.2,118.85h0l-.8-.4c-.2-.2-.3-.6-.3-1-.2-2.5,0-2.6,2.4-2,2.9,.6,5.3,2.1,7.4,4.1,.7,.7,1.3,1.4,1.3,2.5-.6,.6-1.4,1.2-2.3,1.4-.3,.2-.7,.2-1,.1-.4-.1-.6-.4-.7-.4-.3-.5-2-1.7-6-4.3Z"/><path class="j" d="M426.9,109.15c-1-1.2-2.8-3-5.4-4.4-2.2-1.2-4.3-1.8-5.7-2.1v-.1c.1-.5,2.7-.5,3.5-.5,1.7,0,4.2,.2,7.7,1.1,.3,.9,.7,2.3,.4,4.1-.1,.8-.3,1.4-.5,1.9Z"/><path d="M428.5,102.85c1.8,2,1.9,4.3,1.3,6.8-1.3,5.6-4.6,9.9-8.8,13.5-5.7,4.9-12.2,8.8-17.9,13.8-2.2,1.9-4.4,3.7-6.9,5.3,1.4-2,2.7-4,4.1-5.9,3-3.9,3.6-8,1.9-12.8-3.2-9.1,.9-19,9.4-23.3,1-.5,2-.8,3.1-1.2s2.2-.2,3.7-.4c-1.7-.7-3.1-1.2-4.4-1.8-7.1-3.2-13.1-7.7-17-14.6-1-1.8-1.8-3.8-2.1-5.8-.8-6.4,3.1-11,9.7-11.6,9.4-.9,17.4,4,21.5,13.2,3,6.7,4.1,13.8,3.4,21.1-.6-.2-.5-.7-.5-1.1-.4-4.7-2.2-9-4.2-13.1-3.3-6.9-8.7-11.4-16.4-12.8-2.9-.5-5.7,.1-7.4,2.8-1.7,2.6-1.5,5.5-.1,8.2,2,3.8,5.3,6.4,9,8.4,3.3,1.8,6.9,3.4,10.3,5.1,2.8,1,6.7,3.6,8.3,6.2-1.2,.7-4.1-.6-5.3-.8-1.5-.2-3.1-.3-4.6,0-2.2,.3-4.5,.6-6.4,1.8-.9,.7-1.9,1.3-2.9,2-.3,.3-.6,.5-.9,.9-.8,.9-1.4,1.9-1.9,3-.2,.4-.3,.9-.4,1.3-1,2.7-1.1,5.5-.7,8.4,.1,.2,.1,.5,.2,.8,1,4.2,3.3,5.4,7.2,3.7,.4-.2,.7-.3,1.1-.5,1-.4,1.9-1,2.8-1.6,2.4-1.8,4.5-3.9,6.5-6.1,.5-.7,1.1-1.4,1.6-2,.5-.8,1-1.6,1.4-2.5,.5-1.2,1.1-2.4,1.3-3.8,.2-.9,.1-1.9,.2-2.8,0-.8-.2-1.6,.8-1.8Z"/><path d="M445.8,87.55c1.1-1.8,2.8-5.2,2.8-9.4,0-2.1-.3-4.1-1.4-5.8-.6-.9-1.4-1.7-2.5-2.3-.6-.4-1.4-.9-1.1-1.6,.4-.8,1.3-.2,1.9,0,2.5,.8,4.4,4,4.6,7.3,.2,3.1-.7,6-1.8,8.9-.4,1-.9,2-1.3,3-.9,2.1-1.7,4.1-1.7,6.6-.1,4.6-2.8,7.7-6.9,9.5-2.1,.9-3.8,.3-4.6-1.8-1.5-3.5-2.1-7.2-1.1-11,.6-2.6,2.1-4.5,4.7-5.2,2.8-.7,4.9,.3,6.8,2.8,.7-3.6,1.6-6.8,1-10.3-.6-3.2-2-5.6-5.2-6.7-.7-.2-1.6-.6-1.4-1.4,.2-.9,1.3-.5,1.9-.4,.8,.2,1.6,.5,2.2,.9,2,1.3,3,4,3.2,4.5,1.7,4.5,.4,9.4-.1,11-.3,1-.7,2.3-.6,2.4,0,0,.4-.8,.6-1Z"/><path class="f" d="M436.6,93.25c-.1-1.6,.3-2.8,1.4-3.7,2.1-1.6,4.6-.6,4.8,2.1,.2,2.4-.7,4.6-2.3,6.4-1,1.2-2.3,.9-3.1-.6-.5-1.3-.6-2.9-.8-4.2Z"/></g><g><path class="g" d="M178.7,17.65h19.8"/><g><path class="g" d="M139.1,120.65h-19.8"/><path class="g" d="M139.1,120.65l9.9,17.2"/><path class="g" d="M139.1,120.65l9.9-17.2"/><path class="g" d="M119.2,120.65h19.8"/><path class="g" d="M119.2,120.65l-9.9,17.2"/><path class="g" d="M119.2,120.65l-9.9-17.2"/><path class="g" d="M109.3,137.85l9.9-17.2"/><path class="g" d="M109.3,137.85l9.9,17.2"/><path class="g" d="M119.2,154.95l-9.9-17.2"/><path class="g" d="M119.2,154.95h19.8"/><path class="g" d="M139.1,154.95h-19.8"/><path class="g" d="M139.1,154.95l9.9-17.2"/><path class="g" d="M139.1,154.95l9.9,17.2"/><path class="g" d="M149,137.85l-9.9-17.2"/><path class="g" d="M149,137.85l-9.9,17.2"/><path class="g" d="M149,137.85h19.8"/><path class="g" d="M139.1,86.35h-19.8"/><path class="g" d="M139.1,86.35l9.9,17.2"/><path class="g" d="M139.1,86.35l9.9-17.2"/><path class="g" d="M119.2,86.35h19.8"/><path class="g" d="M119.2,86.35l-9.9,17.2"/><path class="g" d="M119.2,86.35l-9.9-17.2"/><path class="g" d="M109.3,103.45l9.9,17.2"/><path class="g" d="M109.3,103.45l9.9-17.2"/><path class="g" d="M149,103.45l-9.9,17.2"/><path class="g" d="M149,103.45l-9.9-17.2"/><path class="g" d="M149,103.45h19.8"/><path class="g" d="M139.1,51.95h-19.8"/><path class="g" d="M139.1,51.95l9.9,17.2"/><path class="g" d="M139.1,51.95l9.9-17.2"/><path class="g" d="M119.2,51.95h19.8"/><path class="g" d="M119.2,51.95l-9.9,17.2"/><path class="g" d="M109.3,69.15l9.9,17.2"/><path class="g" d="M109.3,69.15l9.9-17.2"/><path class="g" d="M149,69.15l-9.9,17.2"/><path class="g" d="M149,69.15l-9.9-17.2"/><path class="g" d="M149,69.15h19.8"/><path class="g" d="M168.8,137.85h-19.8"/><path class="g" d="M168.8,137.85l9.9,17.2"/><path class="g" d="M168.8,137.85l9.9-17.2"/><path class="g" d="M149,172.15l-9.9-17.2"/><path class="g" d="M149,172.15h19.8"/><path class="g" d="M168.8,172.15h-19.8"/><path class="g" d="M168.8,172.15l9.9-17.2"/><path class="g" d="M168.8,172.15l9.9,17.2"/><path class="g" d="M178.7,154.95l-9.9-17.2"/><path class="g" d="M178.7,154.95l-9.9,17.2"/><path class="g" d="M178.7,154.95h19.8"/><path class="g" d="M168.8,103.45h-19.8"/><path class="g" d="M168.8,103.45l9.9,17.2"/><path class="g" d="M168.8,103.45l9.9-17.2"/><path class="g" d="M178.7,120.65l-9.9,17.2"/><path class="g" d="M178.7,120.65l-9.9-17.2"/><path class="g" d="M178.7,120.65h19.8"/><path class="g" d="M168.8,69.15h-19.8"/><path class="g" d="M168.8,69.15l9.9,17.2"/><path class="g" d="M168.8,69.15l9.9-17.2"/><path class="g" d="M178.7,86.35l-9.9,17.2"/><path class="g" d="M178.7,86.35l-9.9-17.2"/><path class="g" d="M178.7,86.35h19.8"/><path class="g" d="M168.8,34.85h-19.8"/><path class="g" d="M168.8,34.85l9.9,17.2"/><path class="g" d="M168.8,34.85l9.9-17.2"/><path class="g" d="M149,34.85l-9.9,17.2"/><path class="g" d="M149,34.85h19.8"/><path class="g" d="M178.7,51.95l-9.9,17.2"/><path class="g" d="M178.7,51.95l-9.9-17.2"/><path class="g" d="M178.7,51.95h19.8"/><path class="g" d="M198.5,154.95h-19.8"/><path class="g" d="M198.5,154.95l9.9,17.2"/><path class="g" d="M198.5,154.95l9.9-17.2"/><path class="g" d="M178.7,189.25l-9.9-17.2"/><path class="h" d="M178.7,189.25h19.8"/><path class="h" d="M198.5,189.25h-19.8"/><path class="g" d="M198.5,189.25l9.9-17.2"/><path class="g" d="M208.4,172.15l-9.9-17.2"/><path class="g" d="M208.4,172.15l-9.9,17.2"/><path class="g" d="M208.4,172.15h19.8"/><path class="g" d="M198.5,120.65h-19.8"/><path class="g" d="M198.5,120.65l9.9,17.2"/><path class="g" d="M198.5,120.65l9.9-17.2"/><path class="g" d="M208.4,137.85l-9.9,17.2"/><path class="g" d="M208.4,137.85l-9.9-17.2"/><path class="g" d="M208.4,137.85h19.8"/><path class="g" d="M198.5,86.35h-19.8"/><path class="g" d="M198.5,86.35l9.9,17.2"/><path class="g" d="M198.5,86.35l9.9-17.2"/><path class="g" d="M208.4,103.45l-9.9,17.2"/><path class="g" d="M208.4,103.45l-9.9-17.2"/><path class="g" d="M208.4,103.45h19.8"/><path class="g" d="M198.5,51.95h-19.8"/><path class="g" d="M198.5,51.95l9.9,17.2"/><path class="g" d="M198.5,51.95l9.9-17.2"/><path class="g" d="M208.4,69.15l-9.9,17.2"/><path class="g" d="M208.4,69.15l-9.9-17.2"/><path class="g" d="M208.4,69.15h19.8"/><path class="g" d="M198.5,17.65l9.9,17.2"/><path class="g" d="M178.7,17.65l-9.9,17.2"/><path class="g" d="M208.4,34.85l-9.9,17.2"/><path class="g" d="M208.4,34.85l-9.9-17.2"/><path class="g" d="M208.4,34.85h19.8"/><path class="g" d="M228.2,137.85h-19.8"/><path class="g" d="M228.2,137.85l9.9,17.2"/><path class="g" d="M228.2,137.85l9.9-17.2"/><path class="g" d="M228.2,172.15h-19.8"/><path class="g" d="M228.2,172.15l9.9-17.2"/><path class="g" d="M238.2,154.95l-9.9-17.2"/><path class="g" d="M238.2,154.95l-9.9,17.2"/><path class="g" d="M238.2,154.95h19.8"/><path class="g" d="M228.2,103.45h-19.8"/><path class="g" d="M228.2,103.45l9.9,17.2"/><path class="g" d="M228.2,103.45l9.9-17.2"/><path class="g" d="M238.2,120.65l-9.9,17.2"/><path class="g" d="M238.2,120.65l-9.9-17.2"/><path class="g" d="M238.2,120.65h19.8"/><path class="g" d="M228.2,69.15h-19.8"/><path class="g" d="M228.2,69.15l9.9,17.2"/><path class="g" d="M228.2,69.15l9.9-17.2"/><path class="g" d="M238.2,86.35l-9.9,17.2"/><path class="g" d="M238.2,86.35l-9.9-17.2"/><path class="g" d="M238.2,86.35h19.8"/><path class="g" d="M228.2,34.85h-19.8"/><path class="g" d="M228.2,34.85l9.9,17.2"/><path class="g" d="M238.2,51.95l-9.9,17.2"/><path class="g" d="M238.2,51.95l-9.9-17.2"/><path class="g" d="M238.2,51.95h19.8"/><path class="g" d="M258,120.65h-19.8"/><path class="g" d="M258,120.65l9.9,17.2"/><path class="g" d="M258,120.65l9.9-17.2"/><path class="g" d="M258,154.95h-19.8"/><path class="g" d="M258,154.95l9.9-17.2"/><path class="g" d="M267.9,137.85l-9.9-17.2"/><path class="g" d="M267.9,137.85l-9.9,17.2"/><path class="g" d="M258,86.35h-19.8"/><path class="g" d="M258,86.35l9.9,17.2"/><path class="g" d="M258,86.35l9.9-17.2"/><path class="g" d="M267.9,103.45l-9.9,17.2"/><path class="g" d="M267.9,103.45l-9.9-17.2"/><g id="b"><path class="g" d="M258,51.95h-19.8"/></g><g id="c"><path class="g" d="M258,51.95l9.9,17.2"/></g><g id="d"><path class="g" d="M267.9,69.15l-9.9,17.2"/></g><g id="e"><path class="g" d="M267.9,69.15l-9.9-17.2"/></g></g></g></svg>